<svg xmlns="http://www.w3.org/2000/svg" width="24" height="24" viewBox="0 0 24 24"><rect width="15.4" height="20.47" x="4.3" y="3" fill="#fff" rx="3.2"/><path fill="#4f6872" d="M16.5 3.5a2.7 2.7 0 0 1 2.7 2.7v14.1a2.7 2.7 0 0 1-2.7 2.7h-9a2.7 2.7 0 0 1-2.7-2.7V6.2a2.7 2.7 0 0 1 2.7-2.7h9m0-1h-9a3.7 3.7 0 0 0-3.7 3.7v14.1A3.6 3.6 0 0 0 7.5 24h9a3.6 3.6 0 0 0 3.7-3.7V6.2a3.7 3.7 0 0 0-3.7-3.7z"/><rect width="15.4" height="20.47" x="4.3" y=".5" fill="#fff" rx="3.2"/><path fill="#4f6872" d="M16.5 1a2.7 2.7 0 0 1 2.7 2.7v14.1a2.7 2.7 0 0 1-2.7 2.7h-9a2.7 2.7 0 0 1-2.7-2.7V3.7A2.7 2.7 0 0 1 7.5 1h9m0-1h-9a3.6 3.6 0 0 0-3.7 3.7v14.1a3.7 3.7 0 0 0 3.7 3.7h9a3.7 3.7 0 0 0 3.7-3.7V3.7A3.6 3.6 0 0 0 16.5 0z"/><path fill="#fff" d="M12.5 14.5A3.3 3.3 0 0 1 11 14c-1.2-.7-1.8-1.5-1.7-2.6s4-5.5 6.6-6.4c.3 1.8 0 6.3-1.5 8.4a2.6 2.6 0 0 1-1.9 1.1z"/><path fill="#4f6872" d="M15.6 5.5c.2 2-.2 5.8-1.5 7.7a2.1 2.1 0 0 1-1.6.9 3.8 3.8 0 0 1-1.3-.4 2.3 2.3 0 0 1-1.5-2.3c.2-2.1 3.5-4.8 5.9-5.9m.6-1c-3.5 1-10.7 6.9-5.4 9.8a3 3 0 0 0 1.7.5c3.8 0 4.3-8.3 3.7-10.3z"/><path fill="none" stroke="#4f6872" stroke-linecap="round" stroke-miterlimit="10" stroke-width=".75" d="M9.3 16.9l5.5-10m-1.9 3.5l-.3-2.3m.3 2.3l2-1.1m-3.2 3.3l-.3-2.3m.3 2.3l2-1.1"/><circle cx="19.5" cy="17.5" r="3" fill="#fff" stroke="#4f6872" stroke-linecap="round" stroke-linejoin="round" stroke-width=".75"/><circle cx="4.5" cy="4.5" r="2" fill="#fff" stroke="#4f6872" stroke-linecap="round" stroke-linejoin="round" stroke-width=".75"/><circle cx="7" cy="7" r="1.5" fill="#fff" stroke="#4f6872" stroke-linecap="round" stroke-linejoin="round" stroke-width=".75"/></svg>