<svg xmlns="http://www.w3.org/2000/svg" width="24" height="24" viewBox="0 0 24 24"><path fill="#fff" d="M10.8 14.3c-5.3-2.9 1.9-8.8 5.4-9.8.6 2.3-.1 12.7-5.4 9.8z"/><path d="M15.6 5.5c.2 2-.2 5.8-1.5 7.7a2.1 2.1 0 0 1-1.6.9 3.8 3.8 0 0 1-1.3-.4 2.3 2.3 0 0 1-1.5-2.3c.2-2.1 3.5-4.8 5.9-5.9m.6-1c-3.5 1-10.7 6.9-5.4 9.8a3 3 0 0 0 1.7.5c3.8 0 4.3-8.3 3.7-10.3z"/><path d="M9.3 17.2h-.2a.4.4 0 0 1-.1-.5l5.4-10c.1-.2.4-.3.5-.2a.5.5 0 0 1 .2.6L9.7 17c-.1.2-.2.2-.4.2z"/><path d="M12.9 10.7c-.2 0-.4-.1-.4-.3l-.2-2.3c0-.2.1-.3.3-.4a.4.4 0 0 1 .4.4l.2 2.2c.1.2-.1.4-.3.4z"/><path d="M12.9 10.7c-.2 0-.3 0-.4-.2s0-.4.2-.5l2-1a.4.4 0 0 1 .5.1.5.5 0 0 1-.2.6l-2 1zM11.7 13a.4.4 0 0 1-.4-.4l-.2-2.2c-.1-.2.1-.4.3-.4s.4.1.4.3l.2 2.3c0 .2-.1.3-.3.4z"/><path d="M11.7 13l-.4-.2c-.1-.2 0-.5.2-.5l2-1.1a.4.4 0 0 1 .5.2c.1.1 0 .4-.2.5l-2 1z"/><path fill="#fff" d="M4.8 6.1a1.5 1.5 0 0 0 1.3-1.6A.7.7 0 0 0 6 4a2.4 2.4 0 0 0-1.2 2.1z"/><path d="M16.5 0h-9a3.8 3.8 0 0 0-3.4 2.2h1.1A2.8 2.8 0 0 1 7.5 1h9a2.7 2.7 0 0 1 2.7 2.7 3.7 3.7 0 0 1 1 2.5V3.7A3.6 3.6 0 0 0 16.5 0zM4.8 17.8v-11h-1v11a3.7 3.7 0 0 0 1 2.5z"/><path fill="none" d="M7.5 23h9a2.8 2.8 0 0 0 2.7-2.2h-.5a4.1 4.1 0 0 1-2.2.7h-9a3.8 3.8 0 0 1-2.7-1.2A2.7 2.7 0 0 0 7.5 23z"/><path d="M18.7 20.8h.5v-.3H19zm4.2-3.3a3.4 3.4 0 0 0-2.7-3.3v.4a3 3 0 0 1 0 5.8v.4a3.4 3.4 0 0 0 2.7-3.3zm-6.4 0a3 3 0 0 1 2.7-3v-.3a3.3 3.3 0 0 0-3.1 3.3 3.5 3.5 0 0 0 1.5 2.8l.3-.2a3.3 3.3 0 0 1-1.4-2.6z"/><path d="M22.1 17.5a2.6 2.6 0 0 1-1.9 2.5v.3a3 3 0 0 0 0-5.8v.5a2.6 2.6 0 0 1 1.9 2.5zm-5.2 0a2.7 2.7 0 0 1 2.3-2.6v-.4a3 3 0 0 0-2.7 3 3.3 3.3 0 0 0 1.4 2.6l.4-.3a2.4 2.4 0 0 1-1.4-2.3zm2.3 2.8l-.2.2h.2v-.2zm0 .5a2.8 2.8 0 0 1-2.7 2.2h-9a2.7 2.7 0 0 1-2.7-2.7 3.7 3.7 0 0 1-1-2.5v2.5A3.6 3.6 0 0 0 7.5 24h9a3.8 3.8 0 0 0 3.7-3.2h-1z"/><path d="M19.5 20.5h-.3v.3h1v-.4zm.7-.5h-.8l-.2.2v.2h1zm-3.7 1.5a4.1 4.1 0 0 0 2.2-.7l-1.1-.5-1.1.2h-9a2.7 2.7 0 0 1-2.7-2.7v2.5a3.8 3.8 0 0 0 2.7 1.2z"/><path d="M19 20.5l-1.1-.4-.3.2 1.1.5zm.2-.4a1.6 1.6 0 0 1-.9-.3l-.4.3 1.1.4.2-.2zm1-5.9v-8a3.7 3.7 0 0 0-1-2.5v10.5h1z"/><path d="M19.5 14.5h.7v-.4h-1v.3zm-.3 0v.4h1v-.4h-1zm0 5.8l.2-.2h-.2zM3.8 6a1.9 1.9 0 0 1-.9-1.5 1.6 1.6 0 0 1 1-1.5 1.9 1.9 0 0 1 .2-.8 2.3 2.3 0 0 0-2 2.3 2.4 2.4 0 0 0 1.7 2.3V6zm1.6-2.8l.7-.4a2 2 0 0 0-.9-.6l-.3.7zm1.5 1.3a2.9 2.9 0 0 0-.2-.9L6 4a.7.7 0 0 1 .1.5 1.5 1.5 0 0 1-1.3 1.6v.6a2.3 2.3 0 0 0 2.1-2.2z"/><path d="M6 4l.7-.4a1.6 1.6 0 0 0-.6-.8l-.7.4A1 1 0 0 1 6 4zM4.8 6.1zm-.3-3.2h.4l.3-.7H4.1a1.9 1.9 0 0 0-.2.8zm-.7 3.3V6zm1 .6v-.6h-1V7h1zM7 8.9A2 2 0 0 1 5.1 7 2 2 0 0 1 7 5.1 2 2 0 0 1 8.9 7 2 2 0 0 1 7 8.9zm0-3A1.1 1.1 0 1 0 8.1 7 1.1 1.1 0 0 0 7 5.9z"/></svg>