<svg xmlns="http://www.w3.org/2000/svg" width="24" height="24" viewBox="0 0 24 24"><path fill="none" d="M7.3 14.1a1.7 1.7 0 0 1-.6-.6 2.7 2.7 0 0 0-.7.8 2 2 0 0 0 .3 1.6l.9 2.4a3.3 3.3 0 0 0 .3.6l.7.4h.1a15.8 15.8 0 0 1 2.4 1.5 6.6 6.6 0 0 0-.1-1.3 1.3 1.3 0 0 0-.1-.6 9 9 0 0 1-.2-1.8c0-.2.1-.4.1-.7zm-3.5-6l.5.2c.5.2.5.7.6 1a1.5 1.5 0 0 0 .8.9 8.5 8.5 0 0 1 .4-1.7 3.3 3.3 0 0 1 2.3-2 2.5 2.5 0 0 1 1.7.1h.3a2.1 2.1 0 0 0 .6-2.7c-.2-.3-.5-.5-.7-.4l-.3.2c-.1.1-.2.2-.2.3s-.9 1-1.8.9H4.5a2.2 2.2 0 0 0-1.1 1.7 1.7 1.7 0 0 0 0 1 .5.5 0 0 0 .4.5zm14-2.9l-.5.9a5.4 5.4 0 0 1-.5 1.1 4 4 0 0 1 1.1 1.4 5.1 5.1 0 0 1 .3 3v1.6h.3a2.8 2.8 0 0 0 2-1.8c.1-.1.2-.3.4-.3l.5.2a2.7 2.7 0 0 0 .8.7.4.4 0 0 1 .4.4v.4h.3V12A11.1 11.1 0 0 0 20 4.5a2.5 2.5 0 0 0-2.2.7z"/><path fill="none" d="M16.2 7.9l-.8-.4h-.2a1.8 1.8 0 0 0-1.4.3L12 9.2 10.4 8l-.2-.2-.7-.3h-.9A2.5 2.5 0 0 0 7.1 9a3.2 3.2 0 0 0-.4 1.6 5 5 0 0 0 .2 1.2v.2c0 .1.1.2.1.3l.4.6.4.4 2.8 2.1.9.6.4.4 4.1-3.1a2.1 2.1 0 0 0 .8-1 1.4 1.4 0 0 0 .2-.6 2.6 2.6 0 0 0 .1-1.5 2.7 2.7 0 0 0-.2-1.2 3 3 0 0 0-.7-1.1z"/><path fill="none" d="M5.4 3.7h2.7c.4 0 .5-.1.9-.5l.3-.2a2.1 2.1 0 0 1 .7-.5 1.5 1.5 0 0 1 1.8.8 3 3 0 0 1-.8 4l1 .7 1.3-1a2.4 2.4 0 0 1 2.3-.4h.3a.1.1 0 0 1 .1-.1 2 2 0 0 0 .4-.8 6.7 6.7 0 0 1 .6-1.1 2.8 2.8 0 0 1 2-1A10.8 10.8 0 0 0 12 1a10.6 10.6 0 0 0-7.1 2.7zm16.5 10.1c-.2 0-.4 0-.5-.2a.4.4 0 0 1 0-.5c.1-.1.1-.2.2-.4l-.5-.2a4.1 4.1 0 0 1-2.5 1.7h-.3a1.1 1.1 0 0 1-.8-.3.5.5 0 0 1-.2-.4 1.7 1.7 0 0 1-.6.6L12 17.6l-.7-.5a10 10 0 0 0 .2 1.6c0 .2.1.4.1.6a4.1 4.1 0 0 1-.3 2.6l-.4.2h-.4a7 7 0 0 0-2.6-1.9h-.1a2.7 2.7 0 0 1-1-.6 5.3 5.3 0 0 1-.6-1l-.9-2.3a3.3 3.3 0 0 1-.2-2.4 3.1 3.1 0 0 1 1-1.2h.1a5.6 5.6 0 0 1-.4-1.2l-.4-.2a2.2 2.2 0 0 1-1.5-1.7v-.5h-.3a1.8 1.8 0 0 1-1.2-1.2 2.8 2.8 0 0 1-.1-.9 10.6 10.6 0 0 0-1.2 5A10.9 10.9 0 0 0 12 23a11 11 0 0 0 10.8-9.2z"/><path d="M12 0a12 12 0 1 0 11.9 12A11.9 11.9 0 0 0 12 0zm10.9 12.8h-.3v-.4a.4.4 0 0 0-.4-.4 2.7 2.7 0 0 1-.8-.7l-.5-.2c-.2 0-.3.2-.4.3a2.8 2.8 0 0 1-2 1.8h-.3v-1.6a5.1 5.1 0 0 0-.3-3 4 4 0 0 0-1.1-1.4 5.4 5.4 0 0 0 .5-1.1l.5-.9a2.5 2.5 0 0 1 2.2-.7 11.1 11.1 0 0 1 2.9 7.5zm-5.8-1.1a1.4 1.4 0 0 1-.2.6 2.1 2.1 0 0 1-.8 1L12 16.4l-.4-.4-.9-.6-2.8-2.1-.4-.4-.4-.6c0-.1-.1-.2-.1-.3v-.2a5 5 0 0 1-.2-1.2A3.2 3.2 0 0 1 7.1 9a2.5 2.5 0 0 1 1.5-1.5h.9l.7.3.2.2L12 9.2l1.8-1.4a1.8 1.8 0 0 1 1.4-.3h.2l.8.4a3 3 0 0 1 .7 1.1 2.7 2.7 0 0 1 .3 1.2 2.6 2.6 0 0 1-.1 1.5zm-6.6 7.2a1.3 1.3 0 0 1 .1.6 6.6 6.6 0 0 1 .1 1.3 15.8 15.8 0 0 0-2.4-1.5h-.1l-.7-.4a3.3 3.3 0 0 1-.3-.6l-.9-2.4a2 2 0 0 1-.3-1.6 2.7 2.7 0 0 1 .7-.8 1.7 1.7 0 0 0 .6.6l3.1 2.3c0 .3-.1.5-.1.7a9 9 0 0 0 .2 1.8zM3.4 6.6a2.2 2.2 0 0 1 1.1-1.9H8c.9.1 1.3-.4 1.8-.9s.1-.2.2-.3l.3-.2c.2-.1.5.1.7.4a2.1 2.1 0 0 1-.6 2.6h-.3a2.5 2.5 0 0 0-1.7-.1 3.3 3.3 0 0 0-2.3 2 8.5 8.5 0 0 0-.4 1.7 1.5 1.5 0 0 1-.8-.9c-.1-.3-.1-.8-.6-1l-.5-.2a.5.5 0 0 1-.4-.5 1.7 1.7 0 0 1 0-.7zm15.6-3a2.8 2.8 0 0 0-2 1 6.7 6.7 0 0 0-.6 1.2 2 2 0 0 1-.4.8.1.1 0 0 0-.1.1h-.3a2.4 2.4 0 0 0-2.3.4L12 8l-1-.7a3 3 0 0 0 .8-4 1.5 1.5 0 0 0-1.8-.8 2.1 2.1 0 0 0-.7.5l-.3.4c-.4.4-.5.5-.9.5H4.9A10.6 10.6 0 0 1 12 1a10.8 10.8 0 0 1 7 2.6zM12 23A10.9 10.9 0 0 1 1.1 12a10.6 10.6 0 0 1 1.2-5 2.8 2.8 0 0 0 .1.9 1.8 1.8 0 0 0 1.2 1.2h.2v.5a2.2 2.2 0 0 0 1.5 1.6l.4.2a5.6 5.6 0 0 0 .4 1.2 3.1 3.1 0 0 0-1 1.2 3.3 3.3 0 0 0 .2 2.4l.9 2.3a5.3 5.3 0 0 0 .6 1 2.7 2.7 0 0 0 1 .6h.1a7 7 0 0 1 2.6 1.9h.4l.4-.2a4.1 4.1 0 0 0 .3-2.6c0-.2-.1-.4-.1-.6a10 10 0 0 1-.2-1.6l.7.5 4.7-3.5a1.7 1.7 0 0 0 .6-.6.5.5 0 0 0 .2.4 1.1 1.1 0 0 0 .8.3h.3a4.1 4.1 0 0 0 2.5-1.7l.5.2c-.1.2-.1.3-.2.4a.4.4 0 0 0 0 .5c.1.2.3.2.5.2h.9A11 11 0 0 1 12 23z"/></svg>