<svg xmlns="http://www.w3.org/2000/svg" width="24" height="24" viewBox="0 0 24 24"><ellipse cx="12" cy="12" fill="#fff" stroke="#4f6872" stroke-linecap="round" stroke-linejoin="round" rx="11.4" ry="11.5"/><path fill="none" stroke="#4f6872" stroke-linecap="round" stroke-linejoin="round" d="M5.4 4.2H4.3c-.9.3-1.3 1.4-1.4 2.3a2.9 2.9 0 0 0 0 1.3c.1.4.4.8.8.8h.4c.3.2.2.5.3.8a1.6 1.6 0 0 0 1.2 1.2l1.6.7a1.4 1.4 0 0 1 .9 1.3c-.2.1-.2-.4-.5-.5h-.2l-.9.8a1.8 1.8 0 0 0-.9 1c-.3.6 0 1.3.2 2l.9 2.3a2 2 0 0 0 .5.9l.9.5a8.7 8.7 0 0 1 2.8 1.9 3.4 3.4 0 0 0 .2-2.2 20.8 20.8 0 0 1-.3-2.3 19.7 19.7 0 0 1 .7-2.6 1.6 1.6 0 0 0 0-1.5c-.6-.6-1.8-.3-2.2-.9s.1-1.2.4-1.8a3.2 3.2 0 0 0 .3-1.7c-.1-.3-.2-.7 0-.9s.4-.5.7-.7a2.6 2.6 0 0 0 .7-3.3c-.3-.4-.8-.8-1.3-.6l-.5.4c-.5.6-.7 1.1-1.6 1zM20.1 4a2.9 2.9 0 0 0-2.7.9 18.6 18.6 0 0 0-1 2c-.4.6-1.1 1-1.2 1.7a1.9 1.9 0 0 0 .9 1.4 3.8 3.8 0 0 1 1.4 1.1 3.9 3.9 0 0 1 .2 1.5c0 .4-.1.7.2.9s.4.2.6.2a3.3 3.3 0 0 0 2.5-2.1 1.5 1.5 0 0 0 1.1.8 1.4 1.4 0 0 1-.3.9H23"/><path fill="#fff" stroke="#4f6872" stroke-miterlimit="10" d="M17.4 8.8c-.8-1.8-2.5-2.4-3.9-1.4L12 8.6l-1.5-1.2c-1.4-1-3.1-.4-3.9 1.4a4.3 4.3 0 0 0 .1 3.7 2.7 2.7 0 0 0 .9 1.2L12 17l4.4-3.3a2.7 2.7 0 0 0 .9-1.2 4.3 4.3 0 0 0 .1-3.7z"/></svg>