<svg xmlns="http://www.w3.org/2000/svg" width="24" height="24" viewBox="0 0 24 24"><path d="M12 24a12 12 0 1 1 11.9-12A11.9 11.9 0 0 1 12 24zm0-23a11 11 0 1 0 10.9 11A10.9 10.9 0 0 0 12 1z"/><path fill="none" d="M6.7 13.5a2.7 2.7 0 0 0-.7.8 2 2 0 0 0 .3 1.6l.9 2.4a3.3 3.3 0 0 0 .3.6l.7.4h.1a15.8 15.8 0 0 1 2.4 1.5 6.6 6.6 0 0 0-.1-1.3 1.3 1.3 0 0 0-.1-.6 9 9 0 0 1-.2-1.8c0-.2.1-.4.1-.7l-3.1-2.3a1.7 1.7 0 0 1-.6-.6zm9.5-5.6a2.3 2.3 0 0 0-.5.7c0 .4.5.8.7 1l.3.2a1 1 0 0 1 .5.4 2.7 2.7 0 0 0-.3-1.2 3 3 0 0 0-.7-1.1zm-9.1 4h-.2v.1zm1.3-5.3a2.5 2.5 0 0 1 1.7.1h.3a2.1 2.1 0 0 0 .6-2.8c-.2-.3-.5-.5-.7-.4l-.3.2c-.1.1-.2.2-.2.3s-.9 1-1.8.9H4.5a2.2 2.2 0 0 0-1.1 1.7 1.7 1.7 0 0 0 0 1 .5.5 0 0 0 .4.5l.5.2c.5.2.5.7.6 1a1.5 1.5 0 0 0 .8.9 8.5 8.5 0 0 1 .4-1.7 3.3 3.3 0 0 1 2.3-1.9z"/><path d="M10.3 17.1a9 9 0 0 0 .2 1.8 1.3 1.3 0 0 1 .1.6 6.6 6.6 0 0 1 .1 1.3 15.8 15.8 0 0 0-2.4-1.5h-.1l-.7-.4a3.3 3.3 0 0 1-.3-.6l-.9-2.4a2 2 0 0 1-.3-1.6 2.7 2.7 0 0 1 .7-.8l-.5-.7v-.2h-.1a3.1 3.1 0 0 0-1 1.2 3.3 3.3 0 0 0 .2 2.4l.9 2.3a5.3 5.3 0 0 0 .6 1 2.7 2.7 0 0 0 1 .6h.1a7 7 0 0 1 2.6 1.9h.4l.4-.2a4.1 4.1 0 0 0 .3-2.6c0-.2-.1-.4-.1-.6a10 10 0 0 1-.2-1.6l-.9-.7c0 .4-.1.6-.1.8zm-4.6-6.8a1.5 1.5 0 0 1-.8-.9c-.1-.3-.1-.8-.6-1l-.5-.2a.5.5 0 0 1-.4-.5 1.7 1.7 0 0 1 0-1 2.2 2.2 0 0 1 1.1-2H8c.9.1 1.3-.4 1.8-.9s.1-.2.2-.3l.3-.2c.2-.1.5.1.7.4a2.1 2.1 0 0 1-.6 2.6h-.3l.6.3.3.3a3 3 0 0 0 .8-4 1.5 1.5 0 0 0-1.8-.4 2.1 2.1 0 0 0-.7.5l-.3.4c-.4.4-.5.5-.9.5H5.4a2.6 2.6 0 0 0-1.2.1 3 3 0 0 0-1.8 2.4 2.6 2.6 0 0 0 0 1.5 1.8 1.8 0 0 0 1.2 1.2h.2v.5a2.2 2.2 0 0 0 1.5 1.6l.4.2a4.5 4.5 0 0 1 0-1.1zM23 12.8h-.4v-.4a.4.4 0 0 0-.4-.4 2.7 2.7 0 0 1-.8-.7l-.5-.2c-.2 0-.3.2-.4.3a2.8 2.8 0 0 1-2 1.8h-.3v-1.6c-.1.4-.3.8-.4 1.2l-.5.7a.5.5 0 0 0 .2.4 1.1 1.1 0 0 0 .8.3h.3a4.1 4.1 0 0 0 2.5-1.7l.5.2c-.1.2-.1.3-.2.4a.4.4 0 0 0 0 .5c.1.2.3.2.5.2H23a.5.5 0 0 0 .5-.5.5.5 0 0 0-.5-.5zm-5.7-6.7l.5-.9a2.7 2.7 0 0 1 2.3-.7c.2 0 .5-.2.5-.4a.7.7 0 0 0-.4-.6A3.6 3.6 0 0 0 17 4.6a6.7 6.7 0 0 0-.6 1.2 2 2 0 0 1-.4.8.1.1 0 0 0-.1.1l.9.5a5.4 5.4 0 0 0 .5-1.1z"/><path d="M10.8 7.4a.8.8 0 0 0-.4.4V8L12 9.2l1.8-1.4a1.8 1.8 0 0 1 1.4-.3l.4-.4.3-.4h-.3a2.4 2.4 0 0 0-2.3.4L12 8l-1-.7h-.2zm-2.2.1h.9a1.1 1.1 0 0 1 .6-.7 2.5 2.5 0 0 0-1.7-.1 3.3 3.3 0 0 0-2.3 2 8.5 8.5 0 0 0-.4 1.7h.1l.6.2h.3A3.2 3.2 0 0 1 7.1 9a2.5 2.5 0 0 1 1.5-1.5zm-1.7 4.3l-.8-.3h-.3a5.6 5.6 0 0 0 .4 1.2L7 12zm9.4-4h-.1a3 3 0 0 1 .7 1.2 2.7 2.7 0 0 1 .3 1.2 2.3 2.3 0 0 1 .7.7l.3.7a5.1 5.1 0 0 0-.3-3 4 4 0 0 0-1.1-1.4zm-8.8 5.1l-.7.6h-.1a1.7 1.7 0 0 0 .6.6l3.1 2.3.3-1-2.8-2.1zm9.7-.3a2.2 2.2 0 0 0-.1-.9 1.4 1.4 0 0 1-.2.6 2.1 2.1 0 0 1-.8 1L12 16.4l-.4-.4-.3 1.1.7.5 4.7-3.5a1.7 1.7 0 0 0 .6-.6c-.2-.3-.1-.6-.1-.9z"/><path d="M10.7 15.4l-.3 1 .9.7.3-1.1zm-4-1.9h.1l.7-.6-.4-.6c0-.1-.1-.2-.1-.3l-.8.6v.2zm.2-1.7a5 5 0 0 1-.2-1.2h-.3l-.6-.2h-.1a4.5 4.5 0 0 0 .1 1.1h.3zm3.2-5.1a1.1 1.1 0 0 0-.6.7l.7.3.2.2v-.1a.8.8 0 0 1 .4-.4h.2l-.3-.4zm5.1.8h.2l.8.4h.1l.5-.6-.9-.5-.3.4zm2.6 5.3c.1-.4.3-.8.4-1.2l-.3-.7a2.3 2.3 0 0 0-.7-.7 2.6 2.6 0 0 1-.1 1.5 2.2 2.2 0 0 1 .1.9c0 .3-.1.6.1.9z"/></svg>