<svg xmlns="http://www.w3.org/2000/svg"><symbol id="eco-friendly" viewBox="0 0 24 24"><path fill="none" d="M7.3 14.1a1.7 1.7 0 0 1-.6-.6 2.7 2.7 0 0 0-.7.8 2 2 0 0 0 .3 1.6l.9 2.4a3.3 3.3 0 0 0 .3.6l.7.4h.1a15.8 15.8 0 0 1 2.4 1.5 6.6 6.6 0 0 0-.1-1.3 1.3 1.3 0 0 0-.1-.6 9 9 0 0 1-.2-1.8c0-.2.1-.4.1-.7zm-3.5-6l.5.2c.5.2.5.7.6 1a1.5 1.5 0 0 0 .8.9 8.5 8.5 0 0 1 .4-1.7 3.3 3.3 0 0 1 2.3-2 2.5 2.5 0 0 1 1.7.1h.3a2.1 2.1 0 0 0 .6-2.7c-.2-.3-.5-.5-.7-.4l-.3.2c-.1.1-.2.2-.2.3s-.9 1-1.8.9H4.5a2.2 2.2 0 0 0-1.1 1.7 1.7 1.7 0 0 0 0 1 .5.5 0 0 0 .4.5zm14-2.9l-.5.9a5.4 5.4 0 0 1-.5 1.1 4 4 0 0 1 1.1 1.4 5.1 5.1 0 0 1 .3 3v1.6h.3a2.8 2.8 0 0 0 2-1.8c.1-.1.2-.3.4-.3l.5.2a2.7 2.7 0 0 0 .8.7.4.4 0 0 1 .4.4v.4h.3V12A11.1 11.1 0 0 0 20 4.5a2.5 2.5 0 0 0-2.2.7z"/><path fill="none" d="M16.2 7.9l-.8-.4h-.2a1.8 1.8 0 0 0-1.4.3L12 9.2 10.4 8l-.2-.2-.7-.3h-.9A2.5 2.5 0 0 0 7.1 9a3.2 3.2 0 0 0-.4 1.6 5 5 0 0 0 .2 1.2v.2c0 .1.1.2.1.3l.4.6.4.4 2.8 2.1.9.6.4.4 4.1-3.1a2.1 2.1 0 0 0 .8-1 1.4 1.4 0 0 0 .2-.6 2.6 2.6 0 0 0 .1-1.5 2.7 2.7 0 0 0-.2-1.2 3 3 0 0 0-.7-1.1z"/><path fill="none" d="M5.4 3.7h2.7c.4 0 .5-.1.9-.5l.3-.2a2.1 2.1 0 0 1 .7-.5 1.5 1.5 0 0 1 1.8.8 3 3 0 0 1-.8 4l1 .7 1.3-1a2.4 2.4 0 0 1 2.3-.4h.3a.1.1 0 0 1 .1-.1 2 2 0 0 0 .4-.8 6.7 6.7 0 0 1 .6-1.1 2.8 2.8 0 0 1 2-1A10.8 10.8 0 0 0 12 1a10.6 10.6 0 0 0-7.1 2.7zm16.5 10.1c-.2 0-.4 0-.5-.2a.4.4 0 0 1 0-.5c.1-.1.1-.2.2-.4l-.5-.2a4.1 4.1 0 0 1-2.5 1.7h-.3a1.1 1.1 0 0 1-.8-.3.5.5 0 0 1-.2-.4 1.7 1.7 0 0 1-.6.6L12 17.6l-.7-.5a10 10 0 0 0 .2 1.6c0 .2.1.4.1.6a4.1 4.1 0 0 1-.3 2.6l-.4.2h-.4a7 7 0 0 0-2.6-1.9h-.1a2.7 2.7 0 0 1-1-.6 5.3 5.3 0 0 1-.6-1l-.9-2.3a3.3 3.3 0 0 1-.2-2.4 3.1 3.1 0 0 1 1-1.2h.1a5.6 5.6 0 0 1-.4-1.2l-.4-.2a2.2 2.2 0 0 1-1.5-1.7v-.5h-.3a1.8 1.8 0 0 1-1.2-1.2 2.8 2.8 0 0 1-.1-.9 10.6 10.6 0 0 0-1.2 5A10.9 10.9 0 0 0 12 23a11 11 0 0 0 10.8-9.2z"/><path d="M12 0a12 12 0 1 0 11.9 12A11.9 11.9 0 0 0 12 0zm10.9 12.8h-.3v-.4a.4.4 0 0 0-.4-.4 2.7 2.7 0 0 1-.8-.7l-.5-.2c-.2 0-.3.2-.4.3a2.8 2.8 0 0 1-2 1.8h-.3v-1.6a5.1 5.1 0 0 0-.3-3 4 4 0 0 0-1.1-1.4 5.4 5.4 0 0 0 .5-1.1l.5-.9a2.5 2.5 0 0 1 2.2-.7 11.1 11.1 0 0 1 2.9 7.5zm-5.8-1.1a1.4 1.4 0 0 1-.2.6 2.1 2.1 0 0 1-.8 1L12 16.4l-.4-.4-.9-.6-2.8-2.1-.4-.4-.4-.6c0-.1-.1-.2-.1-.3v-.2a5 5 0 0 1-.2-1.2A3.2 3.2 0 0 1 7.1 9a2.5 2.5 0 0 1 1.5-1.5h.9l.7.3.2.2L12 9.2l1.8-1.4a1.8 1.8 0 0 1 1.4-.3h.2l.8.4a3 3 0 0 1 .7 1.1 2.7 2.7 0 0 1 .3 1.2 2.6 2.6 0 0 1-.1 1.5zm-6.6 7.2a1.3 1.3 0 0 1 .1.6 6.6 6.6 0 0 1 .1 1.3 15.8 15.8 0 0 0-2.4-1.5h-.1l-.7-.4a3.3 3.3 0 0 1-.3-.6l-.9-2.4a2 2 0 0 1-.3-1.6 2.7 2.7 0 0 1 .7-.8 1.7 1.7 0 0 0 .6.6l3.1 2.3c0 .3-.1.5-.1.7a9 9 0 0 0 .2 1.8zM3.4 6.6a2.2 2.2 0 0 1 1.1-1.9H8c.9.1 1.3-.4 1.8-.9s.1-.2.2-.3l.3-.2c.2-.1.5.1.7.4a2.1 2.1 0 0 1-.6 2.6h-.3a2.5 2.5 0 0 0-1.7-.1 3.3 3.3 0 0 0-2.3 2 8.5 8.5 0 0 0-.4 1.7 1.5 1.5 0 0 1-.8-.9c-.1-.3-.1-.8-.6-1l-.5-.2a.5.5 0 0 1-.4-.5 1.7 1.7 0 0 1 0-.7zm15.6-3a2.8 2.8 0 0 0-2 1 6.7 6.7 0 0 0-.6 1.2 2 2 0 0 1-.4.8.1.1 0 0 0-.1.1h-.3a2.4 2.4 0 0 0-2.3.4L12 8l-1-.7a3 3 0 0 0 .8-4 1.5 1.5 0 0 0-1.8-.8 2.1 2.1 0 0 0-.7.5l-.3.4c-.4.4-.5.5-.9.5H4.9A10.6 10.6 0 0 1 12 1a10.8 10.8 0 0 1 7 2.6zM12 23A10.9 10.9 0 0 1 1.1 12a10.6 10.6 0 0 1 1.2-5 2.8 2.8 0 0 0 .1.9 1.8 1.8 0 0 0 1.2 1.2h.2v.5a2.2 2.2 0 0 0 1.5 1.6l.4.2a5.6 5.6 0 0 0 .4 1.2 3.1 3.1 0 0 0-1 1.2 3.3 3.3 0 0 0 .2 2.4l.9 2.3a5.3 5.3 0 0 0 .6 1 2.7 2.7 0 0 0 1 .6h.1a7 7 0 0 1 2.6 1.9h.4l.4-.2a4.1 4.1 0 0 0 .3-2.6c0-.2-.1-.4-.1-.6a10 10 0 0 1-.2-1.6l.7.5 4.7-3.5a1.7 1.7 0 0 0 .6-.6.5.5 0 0 0 .2.4 1.1 1.1 0 0 0 .8.3h.3a4.1 4.1 0 0 0 2.5-1.7l.5.2c-.1.2-.1.3-.2.4a.4.4 0 0 0 0 .5c.1.2.3.2.5.2h.9A11 11 0 0 1 12 23z"/></symbol><symbol id="all-natural" viewBox="0 0 24 24"><path d="M15.6 5.5c.2 2-.2 5.8-1.5 7.7a2.1 2.1 0 0 1-1.6.9 3.8 3.8 0 0 1-1.3-.4 2.3 2.3 0 0 1-1.5-2.3c.2-2.1 3.5-4.8 5.9-5.9m.6-1c-3.5 1-10.7 6.9-5.4 9.8a3 3 0 0 0 1.7.5c3.8 0 4.3-8.3 3.7-10.3z"/><path d="M9.3 17.2h-.2a.4.4 0 0 1-.1-.5l5.4-10c.1-.2.4-.3.5-.2a.5.5 0 0 1 .2.6L9.7 17c-.1.2-.2.2-.4.2z"/><path d="M12.9 10.7c-.2 0-.4-.1-.4-.3l-.2-2.3c0-.2.1-.3.3-.4a.4.4 0 0 1 .4.4l.2 2.2c.1.2-.1.4-.3.4z"/><path d="M12.9 10.7c-.2 0-.3 0-.4-.2s0-.4.2-.5l2-1a.4.4 0 0 1 .5.1.5.5 0 0 1-.2.6l-2 1zM11.7 13a.4.4 0 0 1-.4-.4l-.2-2.2c-.1-.2.1-.4.3-.4s.4.1.4.3l.2 2.3c0 .2-.1.3-.3.4z"/><path d="M11.7 13l-.4-.2c-.1-.2 0-.5.2-.5l2-1.1a.4.4 0 0 1 .5.2c.1.1 0 .4-.2.5l-2 1zm4.8-13h-9a3.8 3.8 0 0 0-3.4 2.2h1.1A2.8 2.8 0 0 1 7.5 1h9a2.7 2.7 0 0 1 2.7 2.7 3.7 3.7 0 0 1 1 2.5V3.7A3.6 3.6 0 0 0 16.5 0zM4.8 17.8v-11h-1v11a3.7 3.7 0 0 0 1 2.5z"/><path fill="none" d="M7.5 23h9a2.8 2.8 0 0 0 2.7-2.2h-.5a4.1 4.1 0 0 1-2.2.7h-9a3.8 3.8 0 0 1-2.7-1.2A2.7 2.7 0 0 0 7.5 23z"/><path d="M18.7 20.8h.5v-.3H19zm4.2-3.3a3.4 3.4 0 0 0-2.7-3.3v.4a3 3 0 0 1 0 5.8v.4a3.4 3.4 0 0 0 2.7-3.3zm-6.4 0a3 3 0 0 1 2.7-3v-.3a3.3 3.3 0 0 0-3.1 3.3 3.5 3.5 0 0 0 1.5 2.8l.3-.2a3.3 3.3 0 0 1-1.4-2.6z"/><path d="M22.1 17.5a2.6 2.6 0 0 1-1.9 2.5v.3a3 3 0 0 0 0-5.8v.5a2.6 2.6 0 0 1 1.9 2.5zm-5.2 0a2.7 2.7 0 0 1 2.3-2.6v-.4a3 3 0 0 0-2.7 3 3.3 3.3 0 0 0 1.4 2.6l.4-.3a2.4 2.4 0 0 1-1.4-2.3zm2.3 2.8l-.2.2h.2v-.2zm0 .5a2.8 2.8 0 0 1-2.7 2.2h-9a2.7 2.7 0 0 1-2.7-2.7 3.7 3.7 0 0 1-1-2.5v2.5A3.6 3.6 0 0 0 7.5 24h9a3.8 3.8 0 0 0 3.7-3.2h-1z"/><path d="M19.5 20.5h-.3v.3h1v-.4zm.7-.5h-.8l-.2.2v.2h1zm-3.7 1.5a4.1 4.1 0 0 0 2.2-.7l-1.1-.5-1.1.2h-9a2.7 2.7 0 0 1-2.7-2.7v2.5a3.8 3.8 0 0 0 2.7 1.2z"/><path d="M19 20.5l-1.1-.4-.3.2 1.1.5zm.2-.4a1.6 1.6 0 0 1-.9-.3l-.4.3 1.1.4.2-.2zm1-5.9v-8a3.7 3.7 0 0 0-1-2.5v10.5h1z"/><path d="M19.5 14.5h.7v-.4h-1v.3zm-.3 0v.4h1v-.4h-1zm0 5.8l.2-.2h-.2zM3.8 6a1.9 1.9 0 0 1-.9-1.5 1.6 1.6 0 0 1 1-1.5 1.9 1.9 0 0 1 .2-.8 2.3 2.3 0 0 0-2 2.3 2.4 2.4 0 0 0 1.7 2.3V6zm1.6-2.8l.7-.4a2 2 0 0 0-.9-.6l-.3.7zm1.5 1.3a2.9 2.9 0 0 0-.2-.9L6 4a.7.7 0 0 1 .1.5 1.5 1.5 0 0 1-1.3 1.6v.6a2.3 2.3 0 0 0 2.1-2.2z"/><path d="M6 4l.7-.4a1.6 1.6 0 0 0-.6-.8l-.7.4A1 1 0 0 1 6 4zM4.8 6.1zm-.3-3.2h.4l.3-.7H4.1a1.9 1.9 0 0 0-.2.8zm-.7 3.3V6zm1 .6v-.6h-1V7h1zM7 8.9A2 2 0 0 1 5.1 7 2 2 0 0 1 7 5.1 2 2 0 0 1 8.9 7 2 2 0 0 1 7 8.9zm0-3A1.1 1.1 0 1 0 8.1 7 1.1 1.1 0 0 0 7 5.9z"/></symbol><symbol id="error" viewBox="0 0 24 24"><path d="M23.8 20l-5.2-8.9-5.1-8.8a1.7 1.7 0 0 0-3 0l-5.1 8.8L.2 20a1.8 1.8 0 0 0 1.6 2.6h20.4a1.8 1.8 0 0 0 1.6-2.6zm-11.7.9a1.3 1.3 0 0 1-1.2-1.2 1.2 1.2 0 0 1 1.2-1.2 1.2 1.2 0 0 1 1.2 1.2 1.2 1.2 0 0 1-1.2 1.2zm1.3-4.3a.8.8 0 0 1-.9.7h-.7c-.5 0-1-.3-1-.7l-.4-10.5a.8.8 0 0 1 .9-.7h1.6c.6 0 1 .3 1 .7z"/></symbol><symbol id="facebook" viewBox="0 0 24 24"><path d="M12 2A10 10 0 1 1 2 12 10 10 0 0 1 12 2zm0-2a12 12 0 1 0 12 12A12 12 0 0 0 12 0zm-2 10H8v2h2v6h3v-6h1.8l.2-2h-2v-.8c0-.5.1-.7.6-.7H15V6h-2.4c-1.8 0-2.6.8-2.6 2.3z"/></symbol><symbol id="hamburger" viewBox="0 0 24 24"><rect width="24" height="3.67" y="4.2" rx="1.8"/><rect width="24" height="3.67" y="10.2" rx="1.8"/><rect width="24" height="3.67" y="16.2" rx="1.8"/></symbol><symbol id="instagram" viewBox="0 0 24 24"><path d="M12 2A10 10 0 1 1 2 12 10 10 0 0 1 12 2zm0-2a12 12 0 1 0 12 12A12 12 0 0 0 12 0zm0 7.1h2.4a2.3 2.3 0 0 1 2.5 2.5v4.8a2.3 2.3 0 0 1-2.5 2.5H9.6a2.3 2.3 0 0 1-2.5-2.5V9.6a2.3 2.3 0 0 1 2.5-2.5zM12 6H9.5A3.3 3.3 0 0 0 6 9.5v5A3.3 3.3 0 0 0 9.5 18h5a3.3 3.3 0 0 0 3.5-3.5v-5A3.3 3.3 0 0 0 14.5 6zm0 2.9a3.1 3.1 0 1 0 3.1 3.1A3.1 3.1 0 0 0 12 8.9zm0 5.1a2 2 0 1 1 2-2 2 2 0 0 1-2 2zm3.2-5.9a.7.7 0 1 0 .7.7.7.7 0 0 0-.7-.7z"/></symbol><symbol id="no-chemicals" viewBox="0 0 24 24"><path d="M12 24A11.9 11.9 0 0 1 .2 12 11.9 11.9 0 0 1 12 0a11.9 11.9 0 0 1 11.8 12A11.9 11.9 0 0 1 12 24zm0-23A10.9 10.9 0 0 0 1.2 12 10.9 10.9 0 0 0 12 23a10.9 10.9 0 0 0 10.8-11A10.9 10.9 0 0 0 12 1z"/><path d="M17 19.6H7a1.9 1.9 0 0 1-1.5-.9 1.9 1.9 0 0 1 0-1.8L8.9 11V7.2h-.1A1.2 1.2 0 0 1 7.6 6v-.4a1.2 1.2 0 0 1 1.2-1.2h6.4a1.2 1.2 0 0 1 1.2 1.2V6a1.2 1.2 0 0 1-1.2 1.2h-.1V11l3.4 5.9a1.9 1.9 0 0 1 0 1.8 1.9 1.9 0 0 1-1.5.9zM8.8 5.4a.2.2 0 0 0-.2.2V6a.2.2 0 0 0 .2.2h1.1v5l-3.5 6.2a.6.6 0 0 0 0 .8.8.8 0 0 0 .6.4h10a.8.8 0 0 0 .6-.4.6.6 0 0 0 0-.8l-3.5-6.2v-5h1.1a.2.2 0 0 0 .2-.2v-.4a.2.2 0 0 0-.2-.2z"/><path d="M8.1 13.3h7.8v1H8.1z"/><path d="M2.15 17.73L21.293 5.346l.544.84L2.693 18.57z"/></symbol><symbol id="shopping-cart" viewBox="0 0 24 24"><path d="M11.5 14a3.5 3.5 0 1 1 3.5-3.5 3.5 3.5 0 0 1-3.5 3.5zm0-6a2.5 2.5 0 1 0 2.5 2.5A2.5 2.5 0 0 0 11.5 8zm7 .9a2.4 2.4 0 0 1-2.4-2.4 2.4 2.4 0 0 1 4.8 0 2.4 2.4 0 0 1-2.4 2.4zm0-4a1.6 1.6 0 1 0 1.6 1.6 1.6 1.6 0 0 0-1.6-1.6zm-6.5 0A2 2 0 0 1 10.1 3 2 2 0 0 1 12 1.1 2 2 0 0 1 13.9 3 2 2 0 0 1 12 4.9zm0-3A1.1 1.1 0 1 0 13.1 3 1.1 1.1 0 0 0 12 1.9z"/><ellipse cx="9" cy="21.6" rx="1.2" ry="1.2"/><path d="M9 23.2a1.6 1.6 0 0 1-1.5-1.6A1.5 1.5 0 0 1 9 20.1a1.6 1.6 0 0 1 1.6 1.5A1.6 1.6 0 0 1 9 23.2zm0-2.4a.9.9 0 0 0-.8.8.8.8 0 0 0 .8.8.7.7 0 0 0 .8-.8.8.8 0 0 0-.8-.8z"/><ellipse cx="17.8" cy="21.6" rx="1.2" ry="1.2"/><path d="M17.8 23.2a1.6 1.6 0 0 1-1.5-1.6 1.5 1.5 0 0 1 1.5-1.5 1.6 1.6 0 0 1 1.6 1.5 1.6 1.6 0 0 1-1.6 1.6zm0-2.4a.9.9 0 0 0-.8.8.8.8 0 0 0 .8.8.7.7 0 0 0 .8-.8.8.8 0 0 0-.8-.8zM4.1 11.5H1.5A1.5 1.5 0 0 1 0 10a1.5 1.5 0 0 1 1.5-1.5h2.6A1.5 1.5 0 0 1 5.6 10a1.5 1.5 0 0 1-1.5 1.5zm14.4 8H8A1.5 1.5 0 0 1 6.5 18 1.4 1.4 0 0 1 8 16.5h10.5A1.5 1.5 0 0 1 20 18a1.5 1.5 0 0 1-1.5 1.5z"/><path d="M8 19.5a3 3 0 0 1-2.9-2l-2.4-7a1.5 1.5 0 0 1 .9-1.9 1.5 1.5 0 0 1 1.9.9l2.5 7a1.5 1.5 0 0 1 0 3z"/><path d="M8 19.5a3 3 0 0 1-2.9-2 1.5 1.5 0 0 1 1-1.9 1.5 1.5 0 0 1 1.9.9 1.5 1.5 0 0 1 0 3zm10.6 0a1.5 1.5 0 0 1-1.5-1.5 1.5 1.5 0 0 1 1.5-1.5h.1l2.4-7a1.5 1.5 0 0 1 1.9-.9 1.5 1.5 0 0 1 .9 1.9l-2.5 7a2.7 2.7 0 0 1-2.8 2z"/><path d="M18.6 19.5a1.5 1.5 0 0 1-1.5-1.5 1.5 1.5 0 0 1 1.5-1.5h.1a1.4 1.4 0 0 1 1.8-1 1.7 1.7 0 0 1 1 2 2.9 2.9 0 0 1-2.9 2z"/></symbol><symbol id="twitter" viewBox="0 0 24 24"><path d="M12 2A10 10 0 1 1 2 12 10 10 0 0 1 12 2zm0-2a12 12 0 1 0 12 12A12 12 0 0 0 12 0zm6.5 8.8l-1.4.4a2.6 2.6 0 0 0 1.1-1.4 4.4 4.4 0 0 1-1.6.6 2.3 2.3 0 0 0-1.8-.8 2.5 2.5 0 0 0-2.4 3 7.2 7.2 0 0 1-5.1-2.5 2.6 2.6 0 0 0 .8 3.3L7 11.1a2.5 2.5 0 0 0 2 2.4H7.8a2.6 2.6 0 0 0 2.3 1.7 4.7 4.7 0 0 1-3.6 1.1 7 7 0 0 0 10.8-6.2 4.9 4.9 0 0 0 1.2-1.3z"/></symbol><symbol id="youtube" viewBox="0 0 24 24"><path d="M16.2 7.1H7.8c-2.2.1-2.5 1.5-2.5 4.9s.3 4.8 2.5 4.9 6.4.1 8.4 0 2.5-1.5 2.5-4.9-.3-4.8-2.5-4.9zM10 14.2V9.8l4.8 2.2zM12 2A10 10 0 1 1 2 12 10 10 0 0 1 12 2zm0-2a12 12 0 1 0 12 12A12 12 0 0 0 12 0z"/></symbol><symbol id="logo" viewBox="0 0 200 200"><path d="M16.9 144.6h8.9c7.7 0 11.7 3 11.7 9.5 0 3.9-1.9 6.7-5.3 7.8a8.7 8.7 0 0 1 7.6 9.1c0 7.1-4.6 10.5-14.7 10.5h-8.2zm8.9 16c5.4 0 8.2-1.8 8.2-6.2s-2.7-6.5-8.2-6.5h-5.4v12.7zm-.8 17.5c7.8 0 11.2-1.9 11.2-7.1s-3.4-7.2-10.4-7.2h-5.4v14.3zm18.9-33.5h3.6V178h13.6v3.5H43.9z"/><path d="M78.3 182.1A19.2 19.2 0 1 1 97.4 163a19 19 0 0 1-19.1 19.1zm0-34.6A15.5 15.5 0 1 0 93.8 163a15.3 15.3 0 0 0-15.5-15.5zm41 34.6a19.2 19.2 0 1 1 19.1-19.1 19 19 0 0 1-19.1 19.1zm0-34.6a15.5 15.5 0 1 0 15.5 15.5 15.3 15.3 0 0 0-15.5-15.5zm23.2-2.9h4.3l16.1 32.8 15.9-32.8h4.3v36.9h-3.6v-30.4l-14.8 30.4h-3.6l-15-30.5v30.5h-3.6zm-41-52.6c-1.5-4.6-5-9.1-10-10s-10 1.4-11.7 6.2 1.3 11.7 6.8 11.1c1.9-.2 3.1-2.9 1.1-3.9s-4.6-5.1-1.5-7.3 8.1-.4 10.1 2.8 2.2 10.3 1.2 15.5-1.9 8.2-4.5 11.5c-.4.6 2.3.2 3.5-1.3a24.8 24.8 0 0 0 4.1-7.7c1.7-5.3 2.6-11.5.9-16.9z"/><path d="M107 71.4a27 27 0 0 0-19.5-11.2 22.8 22.8 0 0 0-20 8.6c-4.6 6.1-6.6 16-2 22.7 1.7 2.5 6.5 1 5.2-2.2-2.1-5.3-2.5-10.6.4-15.7s8.8-8.2 14.9-8.3c14.3-.1 23.6 12.9 23.7 26.3a37.7 37.7 0 0 1-2.1 12.5c-1.2 4-3.1 7.5-4.7 11.2l-.3.7a7.2 7.2 0 0 0 2.2-1.6 35.8 35.8 0 0 0 5.2-8.8 37.3 37.3 0 0 0 3-11.8 33.7 33.7 0 0 0-6-22.4z"/><path d="M125.4 55.6c-7.6-2.3-16.7 3.8-14.3 12.2 1.1 3.6 4.7 6.7 8.6 5.6s5-5.3 1.8-7.6c-.6-.4-1.6.5-1.1 1.2s-.1 3.7-2.2 3.7a4.3 4.3 0 0 1-2.9-1.3 6.3 6.3 0 0 1-1.4-5.7c.9-4.3 5.9-5.5 9.6-4.1 10.3 3.8 7.9 17.4 4.8 25.2-6 15.3-19.8 27.2-35.2 32.5a.7.7 0 1 0 .4 1.4c19.1-3.8 34.8-18.6 40.6-37.2 2.8-8.9 2.1-22.6-8.7-25.9zm8.8-3.7c-2.2 0-2.2 3.5 0 3.5a1.8 1.8 0 0 0 0-3.5zm4.6 4.3c-2.5 0-2.5 3.9 0 3.9s2.5-3.9 0-3.9zm3.1 6.9c-2.9 0-2.9 4.6 0 4.6s2.9-4.6 0-4.6zm-83.1 8.1a1.9 1.9 0 0 0 0 3.7 1.9 1.9 0 0 0 0-3.7zm-.9 7.4a1.7 1.7 0 0 0 0 3.4c2.1 0 2.2-3.4 0-3.4zm.4 6c-3.2 0-3.2 5 0 5s3.3-5 0-5zm34.6 11.9h-.2c-2.5-.1-2.5 4.1 0 3.9h.2a1.9 1.9 0 0 0 0-3.9zm-7 3.8a1.7 1.7 0 0 0 0 3.4 1.7 1.7 0 0 0 0-3.4zm-5.9-2c-2.4 0-2.4 3.8 0 3.8s2.4-3.8 0-3.8zm47.2-61.7a28.3 28.3 0 0 0-14.5 5.4c2.6-6.5 4.1-13.3 2.1-20.7a1.5 1.5 0 0 0-2.2-.9c-6.3 3.5-10 9.6-11.8 16.5a5 5 0 0 0-.4-1.3 51.9 51.9 0 0 0-9.9-17.8 1.2 1.2 0 0 0-2 .5 41.5 41.5 0 0 0 .5 25.4 34.4 34.4 0 0 0-6.4-3.1 37 37 0 0 0-8.1-1.3 1.5 1.5 0 0 0-1.3 2.2 31.7 31.7 0 0 0 23.7 15.4 10.9 10.9 0 0 0 1 1.1 1.7 1.7 0 0 0 2.9-.8 1.5 1.5 0 0 0 2.3-.1c10.6-1.4 20.9-8.5 25.4-18.3.4-.9 0-2.4-1.3-2.2zm-22.8-.3a22.1 22.1 0 0 1 7.9-12.1c1.2 7.6-.9 15.3-4.3 22.3a22.6 22.6 0 0 0-4.5 8c-.1-.1 0-.2-.1-.3.2-6-.5-11.9 1-17.9zm-4.5 5.1a42.2 42.2 0 0 0 .1 12.3h-.8a38.9 38.9 0 0 0-4.1-5 38.4 38.4 0 0 1-4.8-27.3 49.8 49.8 0 0 1 8.2 15.2c.5 1.5 1 3.1 1.4 4.8zm-22.3 1.2a29.9 29.9 0 0 1 14.6 7.9 16.4 16.4 0 0 0 1.4 2.2 30.6 30.6 0 0 1-16-10.1zm29 12.4c3.4-7.1 9.7-13.4 17.6-15.1A37.5 37.5 0 0 1 106.6 55z"/><path d="M101 55.9a1.1 1.1 0 0 0-.3-.9 1 1 0 0 0-.9-.2h-.2a.7.7 0 0 0-.6.3l-.5.4-.9.8-.8.9-.5.7a2 2 0 0 0-.1 1.1v.2a1 1 0 0 0 .4.5l.6.2a1.2 1.2 0 0 0 1-.2 1.5 1.5 0 0 0 .6-.5l.7-.9a10.5 10.5 0 0 0 .8-1.1l.3-.4c0-.1.1-.2.2-.3a6.4 6.4 0 0 0 .2-.7z"/><path d="M102.3 60.2l-.3-1.7-.3-1.5a2.9 2.9 0 0 0-.2-.9 2.4 2.4 0 0 0-.6-.8h-.8a1.6 1.6 0 0 0-.5.9 3 3 0 0 0-.2 1c0 .5-.1 1-.1 1.5s-.1 1-.1 1.5.1.6.1.8a1.7 1.7 0 0 0 .4 1.2l.5.3a1.3 1.3 0 0 0 1.2 0l.4-.3a1.6 1.6 0 0 0 .5-1.1zm3.4-1.6l-.5-.6a4.4 4.4 0 0 0-.8-1.1l-.5-.6-.4-.6a1.8 1.8 0 0 0-.7-.5l-.5-.4a.3.3 0 0 0-.4.2 1.7 1.7 0 0 1 .1.7 1.7 1.7 0 0 1 .1.7l.3.8.3.6.6 1.3a1.6 1.6 0 0 0 .4.7 1.8 1.8 0 0 0 .5.7 1.3 1.3 0 0 0 1.3.2 1.1 1.1 0 0 0 .5-1.2z"/><path d="M109.3 57.7c-.3-.2-.5-.5-.8-.6l-.6-.4-1.5-.7-2.9-1.4a.5.5 0 0 0-.7.2.6.6 0 0 0 .1.7l2.4 2a7.1 7.1 0 0 0 1.4 1l.6.4a2 2 0 0 0 .8.4 1 1 0 0 0 1.3-.3 1.1 1.1 0 0 0-.1-1.3zM71.7 190.9a2.4 2.4 0 0 0-.9-.8 2.8 2.8 0 0 0-1.3-.3h-.8l-.7.4-.5.6a1.5 1.5 0 0 0-.2.9 1.1 1.1 0 0 0 .2.8 1.3 1.3 0 0 0 .5.6l.7.4.8.3 1.2.4 1 .5a2.2 2.2 0 0 1 .7.9 2.3 2.3 0 0 1 .3 1.3 2.8 2.8 0 0 1-.3 1.3 3.9 3.9 0 0 1-.8 1l-1.1.5-1.3.2h-.9l-.9-.3-.8-.5-.7-.7.9-.7 1 1a3.3 3.3 0 0 0 1.5.4l.8-.2a1.5 1.5 0 0 0 .7-.3 2 2 0 0 0 .6-.7 2 2 0 0 0 .2-.9 2.9 2.9 0 0 0-.2-.9l-.6-.6-.8-.4-1-.3-1-.4a1.8 1.8 0 0 1-.9-.6 2.7 2.7 0 0 1-.7-.8 3.7 3.7 0 0 1-.2-1.2 2.8 2.8 0 0 1 .3-1.3 2.4 2.4 0 0 1 .8-.9 2.2 2.2 0 0 1 1.1-.5l1.2-.2a3.4 3.4 0 0 1 1.8.4 2 2 0 0 1 1.1.9zm13.7 3.5a5.6 5.6 0 0 1-.4 2.3 9.9 9.9 0 0 1-1.1 1.7 5.7 5.7 0 0 1-1.8 1.2 6.2 6.2 0 0 1-4.4 0 6.1 6.1 0 0 1-2.9-2.9 6.5 6.5 0 0 1 0-4.5 6.1 6.1 0 0 1 2.9-2.9 6.3 6.3 0 0 1 4.4 0 5.7 5.7 0 0 1 1.8 1.2 9.9 9.9 0 0 1 1.1 1.7 5.4 5.4 0 0 1 .4 2.2zm-1.1.1a5.2 5.2 0 0 0-.3-1.8 4.6 4.6 0 0 0-.9-1.5 5 5 0 0 0-1.4-1 5.6 5.6 0 0 0-3.6 0 7.1 7.1 0 0 0-1.4 1 4.6 4.6 0 0 0-.9 1.5 9.9 9.9 0 0 0-.2 1.8 8.8 8.8 0 0 0 .2 1.7 3.8 3.8 0 0 0 .9 1.5 7.1 7.1 0 0 0 1.4 1 5.5 5.5 0 0 0 3.6 0 5 5 0 0 0 1.4-1 3.8 3.8 0 0 0 .9-1.5 4.7 4.7 0 0 0 .3-1.7zm3 5.2h-1.2l4.6-10.5h1.1l4.5 10.5h-1.2l-1.2-2.7h-5.4zm1.6-3.7h4.6l-2.3-5.6zm8.9-6.8h4.5a3.9 3.9 0 0 1 1.1.6 1.8 1.8 0 0 1 .7.8 2.8 2.8 0 0 1 .3 1.3 2.1 2.1 0 0 1-.3 1.2 1.6 1.6 0 0 1-.7.9l-1.1.5a3.9 3.9 0 0 1-1.5.2h-1.9v4.9h-1.1zm1.1 4.7h1.8a3.7 3.7 0 0 0 2-.5 1.9 1.9 0 0 0-.1-2.9 3.4 3.4 0 0 0-1.9-.4h-1.8zm20.2 4.1l-.6.8-.9.6-1.1.4-1.3.2a5.9 5.9 0 0 1-2.3-.4 6.6 6.6 0 0 1-1.7-1.2 4.5 4.5 0 0 1-1.1-1.7 5.6 5.6 0 0 1-.4-2.3 5.4 5.4 0 0 1 .4-2.2 4.5 4.5 0 0 1 1.1-1.7 5.7 5.7 0 0 1 1.8-1.2 5.1 5.1 0 0 1 2.2-.4h1.1l1 .4a1.9 1.9 0 0 1 .9.5l.7.7-.9.6-.4-.5-.7-.4-.8-.3h-.9a5.8 5.8 0 0 0-1.9.3 3.7 3.7 0 0 0-2.2 2.5 5.1 5.1 0 0 0-.3 1.7 5.2 5.2 0 0 0 .3 1.8 4.6 4.6 0 0 0 .9 1.5 4.5 4.5 0 0 0 1.3 1 5.8 5.8 0 0 0 1.9.3 4.7 4.7 0 0 0 1.7-.3 5.3 5.3 0 0 0 1.4-1.2zm12.1-3.6a5.6 5.6 0 0 1-.4 2.3 6.6 6.6 0 0 1-1.2 1.7 4.3 4.3 0 0 1-1.7 1.2 6.2 6.2 0 0 1-4.4 0 6.1 6.1 0 0 1-2.9-2.9 6.5 6.5 0 0 1 0-4.5 6.1 6.1 0 0 1 2.9-2.9 6.3 6.3 0 0 1 4.4 0 4.3 4.3 0 0 1 1.7 1.2 6.6 6.6 0 0 1 1.2 1.7 5.4 5.4 0 0 1 .4 2.2zm-1.1.1a5.2 5.2 0 0 0-.3-1.8 4.6 4.6 0 0 0-.9-1.5 5 5 0 0 0-1.4-1 5.6 5.6 0 0 0-3.6 0 5 5 0 0 0-1.4 1 4.6 4.6 0 0 0-.9 1.5 5.2 5.2 0 0 0-.3 1.8 4.7 4.7 0 0 0 .3 1.7 3.8 3.8 0 0 0 .9 1.5 5 5 0 0 0 1.4 1 5.5 5.5 0 0 0 3.6 0 5 5 0 0 0 1.4-1 3.8 3.8 0 0 0 .9-1.5 4.7 4.7 0 0 0 .3-1.7zm4 4.5a1.4 1.4 0 0 1-.2.6l-.6.2a.8.8 0 0 1-.6-.2 1.4 1.4 0 0 1-.2-.6.8.8 0 0 1 .2-.5.6.6 0 0 1 .6-.3l.6.3a.8.8 0 0 1 .2.5z"/><path d="M168.1 68.1A68.1 68.1 0 1 1 100 0a68.1 68.1 0 0 1 68.1 68.1zM100 5.7a62.4 62.4 0 1 0 62.4 62.4A62.4 62.4 0 0 0 100 5.7z"/></symbol></svg>