<svg xmlns="http://www.w3.org/2000/svg"><symbol id="all-natural" viewBox="0 0 24 24"><rect width="15.4" height="20.47" x="4.3" y="3" fill="#fff" rx="3.2"/><path fill="#4f6872" d="M16.5 3.5a2.7 2.7 0 0 1 2.7 2.7v14.1a2.7 2.7 0 0 1-2.7 2.7h-9a2.7 2.7 0 0 1-2.7-2.7V6.2a2.7 2.7 0 0 1 2.7-2.7h9m0-1h-9a3.7 3.7 0 0 0-3.7 3.7v14.1A3.6 3.6 0 0 0 7.5 24h9a3.6 3.6 0 0 0 3.7-3.7V6.2a3.7 3.7 0 0 0-3.7-3.7z"/><rect width="15.4" height="20.47" x="4.3" y=".5" fill="#fff" rx="3.2"/><path fill="#4f6872" d="M16.5 1a2.7 2.7 0 0 1 2.7 2.7v14.1a2.7 2.7 0 0 1-2.7 2.7h-9a2.7 2.7 0 0 1-2.7-2.7V3.7A2.7 2.7 0 0 1 7.5 1h9m0-1h-9a3.6 3.6 0 0 0-3.7 3.7v14.1a3.7 3.7 0 0 0 3.7 3.7h9a3.7 3.7 0 0 0 3.7-3.7V3.7A3.6 3.6 0 0 0 16.5 0z"/><path fill="#fff" d="M12.5 14.5A3.3 3.3 0 0 1 11 14c-1.2-.7-1.8-1.5-1.7-2.6s4-5.5 6.6-6.4c.3 1.8 0 6.3-1.5 8.4a2.6 2.6 0 0 1-1.9 1.1z"/><path fill="#4f6872" d="M15.6 5.5c.2 2-.2 5.8-1.5 7.7a2.1 2.1 0 0 1-1.6.9 3.8 3.8 0 0 1-1.3-.4 2.3 2.3 0 0 1-1.5-2.3c.2-2.1 3.5-4.8 5.9-5.9m.6-1c-3.5 1-10.7 6.9-5.4 9.8a3 3 0 0 0 1.7.5c3.8 0 4.3-8.3 3.7-10.3z"/><path fill="none" stroke="#4f6872" stroke-linecap="round" stroke-miterlimit="10" stroke-width=".75" d="M9.3 16.9l5.5-10m-1.9 3.5l-.3-2.3m.3 2.3l2-1.1m-3.2 3.3l-.3-2.3m.3 2.3l2-1.1"/><circle cx="19.5" cy="17.5" r="3" fill="#fff" stroke="#4f6872" stroke-linecap="round" stroke-linejoin="round" stroke-width=".75"/><circle cx="4.5" cy="4.5" r="2" fill="#fff" stroke="#4f6872" stroke-linecap="round" stroke-linejoin="round" stroke-width=".75"/><circle cx="7" cy="7" r="1.5" fill="#fff" stroke="#4f6872" stroke-linecap="round" stroke-linejoin="round" stroke-width=".75"/></symbol><symbol id="instagram" viewBox="0 0 24 24"><path fill="#4f6872" d="M12 2A10 10 0 1 1 2 12 10 10 0 0 1 12 2zm0-2a12 12 0 1 0 12 12A12 12 0 0 0 12 0zm0 7.1h2.4a2.3 2.3 0 0 1 2.5 2.5v4.8a2.3 2.3 0 0 1-2.5 2.5H9.6a2.3 2.3 0 0 1-2.5-2.5V9.6a2.3 2.3 0 0 1 2.5-2.5zM12 6H9.5A3.3 3.3 0 0 0 6 9.5v5A3.3 3.3 0 0 0 9.5 18h5a3.3 3.3 0 0 0 3.5-3.5v-5A3.3 3.3 0 0 0 14.5 6zm0 2.9a3.1 3.1 0 1 0 3.1 3.1A3.1 3.1 0 0 0 12 8.9zm0 5.1a2 2 0 1 1 2-2 2 2 0 0 1-2 2zm3.2-5.9a.7.7 0 1 0 .7.7.7.7 0 0 0-.7-.7z"/></symbol><symbol id="eco-friendly" viewBox="0 0 24 24"><ellipse cx="12" cy="12" fill="#fff" stroke="#4f6872" stroke-linecap="round" stroke-linejoin="round" rx="11.4" ry="11.5"/><path fill="none" stroke="#4f6872" stroke-linecap="round" stroke-linejoin="round" d="M5.4 4.2H4.3c-.9.3-1.3 1.4-1.4 2.3a2.9 2.9 0 0 0 0 1.3c.1.4.4.8.8.8h.4c.3.2.2.5.3.8a1.6 1.6 0 0 0 1.2 1.2l1.6.7a1.4 1.4 0 0 1 .9 1.3c-.2.1-.2-.4-.5-.5h-.2l-.9.8a1.8 1.8 0 0 0-.9 1c-.3.6 0 1.3.2 2l.9 2.3a2 2 0 0 0 .5.9l.9.5a8.7 8.7 0 0 1 2.8 1.9 3.4 3.4 0 0 0 .2-2.2 20.8 20.8 0 0 1-.3-2.3 19.7 19.7 0 0 1 .7-2.6 1.6 1.6 0 0 0 0-1.5c-.6-.6-1.8-.3-2.2-.9s.1-1.2.4-1.8a3.2 3.2 0 0 0 .3-1.7c-.1-.3-.2-.7 0-.9s.4-.5.7-.7a2.6 2.6 0 0 0 .7-3.3c-.3-.4-.8-.8-1.3-.6l-.5.4c-.5.6-.7 1.1-1.6 1zM20.1 4a2.9 2.9 0 0 0-2.7.9 18.6 18.6 0 0 0-1 2c-.4.6-1.1 1-1.2 1.7a1.9 1.9 0 0 0 .9 1.4 3.8 3.8 0 0 1 1.4 1.1 3.9 3.9 0 0 1 .2 1.5c0 .4-.1.7.2.9s.4.2.6.2a3.3 3.3 0 0 0 2.5-2.1 1.5 1.5 0 0 0 1.1.8 1.4 1.4 0 0 1-.3.9H23"/><path fill="#fff" stroke="#4f6872" stroke-miterlimit="10" d="M17.4 8.8c-.8-1.8-2.5-2.4-3.9-1.4L12 8.6l-1.5-1.2c-1.4-1-3.1-.4-3.9 1.4a4.3 4.3 0 0 0 .1 3.7 2.7 2.7 0 0 0 .9 1.2L12 17l4.4-3.3a2.7 2.7 0 0 0 .9-1.2 4.3 4.3 0 0 0 .1-3.7z"/></symbol><symbol id="hamburger" viewBox="0 0 24 24"><rect width="24" height="3.67" y="4.2" fill="#4f6872" rx="1.8"/><rect width="24" height="3.67" y="10.2" fill="#4f6872" rx="1.8"/><rect width="24" height="3.67" y="16.2" fill="#4f6872" rx="1.8"/></symbol><symbol id="no-chemicals" viewBox="0 0 24 24"><ellipse cx="12" cy="12" fill="#fff" stroke="#4f6872" stroke-miterlimit="10" rx="11.3" ry="11.5"/><path fill="#fff" stroke="#4f6872" stroke-miterlimit="10" d="M18.1 17.2l-2.5-4.4-1-1.7V6.7h.6a.7.7 0 0 0 .7-.7v-.4a.7.7 0 0 0-.7-.7H8.8a.7.7 0 0 0-.7.7V6a.7.7 0 0 0 .7.7h.6v4.4l-1 1.7-2.5 4.4A1.3 1.3 0 0 0 7 19.1h10a1.3 1.3 0 0 0 1.1-1.9z"/><path fill="none" stroke="#4f6872" stroke-miterlimit="10" d="M8.1 13.8h7.8M2.4 18.2L21.6 5.8"/></symbol><symbol id="facebook" viewBox="0 0 24 24"><path fill="#4f6872" d="M12 2A10 10 0 1 1 2 12 10 10 0 0 1 12 2zm0-2a12 12 0 1 0 12 12A12 12 0 0 0 12 0zm-2 10H8v2h2v6h3v-6h1.8l.2-2h-2v-.8c0-.5.1-.7.6-.7H15V6h-2.4c-1.8 0-2.6.8-2.6 2.3z"/></symbol><symbol id="youtube" viewBox="0 0 24 24"><path fill="#4f6872" d="M16.2 7.1H7.8c-2.2.1-2.5 1.5-2.5 4.9s.3 4.8 2.5 4.9 6.4.1 8.4 0 2.5-1.5 2.5-4.9-.3-4.8-2.5-4.9zM10 14.2V9.8l4.8 2.2zM12 2A10 10 0 1 1 2 12 10 10 0 0 1 12 2zm0-2a12 12 0 1 0 12 12A12 12 0 0 0 12 0z"/></symbol><symbol id="twitter" viewBox="0 0 24 24"><path fill="#4f6872" d="M12 2A10 10 0 1 1 2 12 10 10 0 0 1 12 2zm0-2a12 12 0 1 0 12 12A12 12 0 0 0 12 0zm6.5 8.8l-1.4.4a2.6 2.6 0 0 0 1.1-1.4 4.4 4.4 0 0 1-1.6.6 2.3 2.3 0 0 0-1.8-.8 2.5 2.5 0 0 0-2.4 3 7.2 7.2 0 0 1-5.1-2.5 2.6 2.6 0 0 0 .8 3.3L7 11.1a2.5 2.5 0 0 0 2 2.4H7.8a2.6 2.6 0 0 0 2.3 1.7 4.7 4.7 0 0 1-3.6 1.1 7 7 0 0 0 10.8-6.2 4.9 4.9 0 0 0 1.2-1.3z"/></symbol><symbol id="shopping-cart" viewBox="0 0 24 24"><circle cx="11.5" cy="10.5" r="3" fill="#fff" stroke="#4f6872" stroke-linecap="round" stroke-linejoin="round"/><circle cx="18.5" cy="6.5" r="2" fill="#fff" stroke="#4f6872" stroke-linecap="round" stroke-linejoin="round" stroke-width=".75"/><circle cx="12" cy="3" r="1.5" fill="#fff" stroke="#4f6872" stroke-linecap="round" stroke-linejoin="round" stroke-width=".75"/><ellipse cx="9" cy="21.6" fill="#4f6872" stroke="#4f6872" stroke-miterlimit="10" stroke-width=".75" rx="1.2" ry="1.2"/><ellipse cx="17.8" cy="21.6" fill="#4f6872" stroke="#4f6872" stroke-miterlimit="10" stroke-width=".75" rx="1.2" ry="1.2"/><path fill="none" stroke="#4f6872" stroke-linecap="round" stroke-miterlimit="10" stroke-width="3" d="M4.1 10H1.5m17 8H8m0 0a1.4 1.4 0 0 1-1.4-1l-2.5-7M8 18a1.4 1.4 0 0 1-1.4-1m12 1a1.3 1.3 0 0 0 1.4-1l2.5-7m-3.9 8a1.3 1.3 0 0 0 1.4-1"/></symbol></svg>