<svg xmlns="http://www.w3.org/2000/svg" width="24" height="24" viewBox="0 0 24 24"><path d="M12 2A10 10 0 1 1 2 12 10 10 0 0 1 12 2zm0-2a12 12 0 1 0 12 12A12 12 0 0 0 12 0zm0 7.1h2.4a2.3 2.3 0 0 1 2.5 2.5v4.8a2.3 2.3 0 0 1-2.5 2.5H9.6a2.3 2.3 0 0 1-2.5-2.5V9.6a2.3 2.3 0 0 1 2.5-2.5zM12 6H9.5A3.3 3.3 0 0 0 6 9.5v5A3.3 3.3 0 0 0 9.5 18h5a3.3 3.3 0 0 0 3.5-3.5v-5A3.3 3.3 0 0 0 14.5 6zm0 2.9a3.1 3.1 0 1 0 3.1 3.1A3.1 3.1 0 0 0 12 8.9zm0 5.1a2 2 0 1 1 2-2 2 2 0 0 1-2 2zm3.2-5.9a.7.7 0 1 0 .7.7.7.7 0 0 0-.7-.7z"/></svg>