<svg id="Layer_1" data-name="Layer 1" xmlns="http://www.w3.org/2000/svg" width="64" height="64" viewBox="0 0 64 64"><title>logo-64</title><path d="M64,32A32,32,0,1,1,32,0,32,32,0,0,1,64,32ZM32,2.7A29.3,29.3,0,1,0,61.3,32,29.3,29.3,0,0,0,32,2.7Z" fill="#4f6872"/><path d="M55.9,28.8a26.4,26.4,0,0,0-13.2,5c2.4-6,3.8-12.1,1.9-18.9a1.3,1.3,0,0,0-1.9-.8c-5.7,3.2-9.1,8.8-10.7,15-.2-.4-.2-.8-.4-1.2a47.3,47.3,0,0,0-9-16.1,1.1,1.1,0,0,0-1.8.5,38.4,38.4,0,0,0,.4,23,30.1,30.1,0,0,0-5.7-2.8,36.9,36.9,0,0,0-7.4-1.2c-1-.1-1.6,1.2-1.2,2a29.1,29.1,0,0,0,21.5,14l.9,1a1.5,1.5,0,0,0,2.6-.7,1.4,1.4,0,0,0,2.1-.1c9.7-1.3,19-7.7,23.1-16.7A1.3,1.3,0,0,0,55.9,28.8Zm-20.6-.2a19.5,19.5,0,0,1,7.1-11c1.1,6.9-.8,13.9-3.9,20.2a21.1,21.1,0,0,0-4.1,7.3.4.4,0,0,0-.1-.3C34.5,39.4,33.8,34,35.3,28.6Zm-4.2,4.6a41.9,41.9,0,0,0,.1,11.2h-.7a31.6,31.6,0,0,0-3.7-4.5A34.9,34.9,0,0,1,22.4,15a46.3,46.3,0,0,1,7.5,13.8ZM10.9,34.3a26.5,26.5,0,0,1,13.2,7.2l1.3,2A27.7,27.7,0,0,1,10.9,34.3ZM37.2,45.6c3.1-6.5,8.8-12.2,16-13.7A34.4,34.4,0,0,1,37.2,45.6Z" fill="#4f6872"/><path d="M32.1,46.4a.8.8,0,0,0-1-1h-.2l-.6.4-.4.3-.8.7-.7.8a1.8,1.8,0,0,0-.5.7,1.1,1.1,0,0,0-.1,1h0l.3.5.6.2h.9l.6-.5.6-.8a6.1,6.1,0,0,0,.7-1l.3-.4c0-.1.1-.2.1-.3a1.4,1.4,0,0,0,.2-.6v0Z" fill="#4f6872"/><path d="M33.3,50.3,33,48.7a5.1,5.1,0,0,0-.2-1.3,1.1,1.1,0,0,0-.3-.8c-.1-.3-.2-.6-.5-.7a.5.5,0,0,0-.6,0,1.1,1.1,0,0,0-.5.8,2.4,2.4,0,0,0-.2.8c0,.5-.1,1-.1,1.4s-.1,1-.1,1.4.1.5.1.7a1.5,1.5,0,0,0,.4,1.1l.4.3a1.4,1.4,0,0,0,1.1,0l.4-.3a1.4,1.4,0,0,0,.4-1Z" fill="#4f6872"/><path d="M36.4,48.8a1,1,0,0,1-.4-.5l-.8-1-.4-.6-.4-.5-.6-.5-.5-.3c-.1-.1-.3,0-.3.2a1.3,1.3,0,0,0,.1.6,1.7,1.7,0,0,0,.1.7c0,.2.2.4.2.6l.3.6.5,1.2.3.6.6.7c.3.2.8.4,1.1.1a.9.9,0,0,0,.5-1.1Z" fill="#4f6872"/><path d="M39.7,48l-.7-.6-.6-.3-1.3-.7-2.7-1.2c-.2-.1-.4,0-.6.2a.6.6,0,0,0,0,.6L36,47.8a10.1,10.1,0,0,0,1.3.9l.5.4.7.4c.5.1.9.1,1.2-.3A.9.9,0,0,0,39.7,48Z" fill="#4f6872"/></svg>