<svg id="Layer_1" data-name="Layer 1" xmlns="http://www.w3.org/2000/svg" width="256" height="256" viewBox="0 0 256 256"><title>logo-256</title><path d="M21.6,185.1H33c9.9,0,15,3.8,15,12.2,0,5-2.4,8.5-6.7,10,6.1,1,9.7,5.6,9.7,11.6,0,9.1-6,13.4-18.9,13.4H21.6Zm11.5,20.5c6.8,0,10.4-2.4,10.4-8s-3.4-8.3-10.4-8.3h-7v16.3ZM32,227.9c10,0,14.3-2.4,14.3-9s-4.3-9.3-13.2-9.3h-7v18.3Z" fill="#4f6872"/><path d="M56.2,185.1h4.6v42.7H78.2v4.5h-22Z" fill="#4f6872"/><path d="M100.2,233.1a24.5,24.5,0,1,1,24.5-24.5A24.4,24.4,0,0,1,100.2,233.1Zm0-44.3A19.9,19.9,0,1,0,120,208.6,19.6,19.6,0,0,0,100.2,188.8Z" fill="#4f6872"/><path d="M152.7,233.1a24.5,24.5,0,1,1,24.4-24.5A24.4,24.4,0,0,1,152.7,233.1Zm0-44.3a19.9,19.9,0,1,0,19.8,19.8A19.6,19.6,0,0,0,152.7,188.8Z" fill="#4f6872"/><path d="M182.4,185.1h5.5l20.6,42,20.4-42h5.5v47.2h-4.7V193.4l-18.9,38.9h-4.6l-19.2-39v39h-4.6Z" fill="#4f6872"/><path d="M129.9,117.8c-1.9-5.9-6.4-11.7-12.8-12.8s-12.8,1.8-15,7.9,1.7,14.9,8.8,14.2c2.4-.3,3.9-3.7,1.3-5s-5.9-6.5-1.9-9.4,10.4-.5,13,3.6c3.7,6,2.8,13.3,1.6,19.8s-2.6,10.6-5.8,14.8c-.6.7,2.9.3,4.4-1.6a33.1,33.1,0,0,0,5.3-10C131,132.6,132.1,124.6,129.9,117.8Z" fill="#4f6872"/><path d="M136.9,91.4A34.5,34.5,0,0,0,112,77.1c-9.8-.8-19.6,3-25.6,10.9s-8.5,20.5-2.5,29.1c2.1,3.2,8.3,1.3,6.6-2.8-2.7-6.8-3.2-13.6.5-20.1s11.3-10.5,19.1-10.6c18.3-.1,30.2,16.5,30.4,33.7a54.2,54.2,0,0,1-2.7,16c-1.6,5-4,9.5-6.1,14.3l-.4.9c-.1.3,2-1.2,2.8-2.1a47.9,47.9,0,0,0,6.8-11.2,47,47,0,0,0,3.7-15.2A42.2,42.2,0,0,0,136.9,91.4Z" fill="#4f6872"/><path d="M160.5,71.2c-9.7-3-21.4,4.8-18.2,15.6,1.3,4.6,5.9,8.6,10.9,7.2s6.5-6.9,2.4-9.7c-.9-.6-2.2.6-1.5,1.4,1.8,2.4-.2,4.8-2.8,4.8a5.6,5.6,0,0,1-3.7-1.7,8.2,8.2,0,0,1-1.8-7.3c1.2-5.5,7.5-7,12.3-5.2,13.2,4.9,10.1,22.2,6.1,32.3-7.7,19.5-25.4,34.8-45.1,41.5a1,1,0,0,0,.6,1.9c24.5-4.9,44.5-23.9,52-47.6C175.3,92.9,174.3,75.4,160.5,71.2Z" fill="#4f6872"/><path d="M171.8,66.5c-2.8,0-2.8,4.4,0,4.4A2.2,2.2,0,0,0,171.8,66.5Z" fill="#4f6872"/><path d="M177.6,72c-3.2,0-3.2,4.9,0,4.9S180.8,72,177.6,72Z" fill="#4f6872"/><path d="M181.7,80.8c-3.8,0-3.8,5.8,0,5.8S185.4,80.8,181.7,80.8Z" fill="#4f6872"/><path d="M75.2,91.2c-3,0-3,4.7,0,4.7A2.4,2.4,0,0,0,75.2,91.2Z" fill="#4f6872"/><path d="M74.1,100.6c-2.8,0-2.8,4.4,0,4.4S76.9,100.6,74.1,100.6Z" fill="#4f6872"/><path d="M74.7,108.2c-4.2,0-4.2,6.5,0,6.5S78.8,108.2,74.7,108.2Z" fill="#4f6872"/><path d="M119,123.5h-.4c-3.2-.2-3.2,5.2,0,5h.4A2.5,2.5,0,0,0,119,123.5Z" fill="#4f6872"/><path d="M109.9,128.4c-2.7,0-2.7,4.3,0,4.3S112.7,128.4,109.9,128.4Z" fill="#4f6872"/><path d="M102.4,125.8c-3.1,0-3.1,4.8,0,4.8S105.5,125.8,102.4,125.8Z" fill="#4f6872"/><path d="M162.8,46.8c-6.9.8-13,2.7-18.6,7,3.4-8.4,5.3-17.1,2.7-26.6a1.9,1.9,0,0,0-2.8-1.1c-8,4.5-12.8,12.3-15.1,21.1a10.5,10.5,0,0,0-.4-1.7,69,69,0,0,0-12.8-22.7,1.5,1.5,0,0,0-2.5.7,52.7,52.7,0,0,0,.6,32.4,40.3,40.3,0,0,0-8.1-3.9,41.9,41.9,0,0,0-10.5-1.7c-1.4-.1-2.2,1.7-1.6,2.8a40.5,40.5,0,0,0,30.4,19.7l1.2,1.5a2.2,2.2,0,0,0,3.7-1.1,1.9,1.9,0,0,0,2.9-.1c13.6-1.8,26.8-10.9,32.6-23.5C165,48.5,164.4,46.6,162.8,46.8Zm-29.1-.3c1.6-6.1,4.9-11.8,10-15.5,1.6,9.7-1.1,19.6-5.5,28.5a31.6,31.6,0,0,0-5.7,10.3c-.1-.1-.1-.3-.2-.4C132.6,61.7,131.7,54.1,133.7,46.5ZM127.8,53a63.4,63.4,0,0,0,.1,15.7h-1a39.8,39.8,0,0,0-5.1-6.4c-6.2-10.4-8.8-23.1-6.2-35a65.7,65.7,0,0,1,10.5,19.5C126.7,48.7,127.3,50.8,127.8,53ZM99.4,54.6a37.3,37.3,0,0,1,18.6,10,17.5,17.5,0,0,0,1.8,2.9A38.8,38.8,0,0,1,99.4,54.6Zm37,15.8c4.4-9.1,12.5-17.1,22.6-19.3A47.7,47.7,0,0,1,136.4,70.4Z" fill="#4f6872"/><path d="M129.2,71.6a1.2,1.2,0,0,0-1.4-1.5h-.3l-.8.5-.6.5a15.6,15.6,0,0,0-2.1,2.1l-.7.9a2.3,2.3,0,0,0-.2,1.4.3.3,0,0,0,.1.2c.1.3.2.6.5.7a1,1,0,0,0,.8.3,1.7,1.7,0,0,0,1.2-.2,2.7,2.7,0,0,0,.8-.7l.9-1.1,1-1.4a2.1,2.1,0,0,1,.4-.6l.2-.3a1.5,1.5,0,0,0,.2-.9v0Z" fill="#4f6872"/><path d="M130.9,77.1a18.5,18.5,0,0,0-.4-2.3l-.3-1.9a4.5,4.5,0,0,0-.3-1.1,2.3,2.3,0,0,0-.7-1,1.2,1.2,0,0,0-1,0,2.6,2.6,0,0,0-.7,1.1l-.3,1.3a12.1,12.1,0,0,1-.1,1.9c0,.7-.1,1.4-.1,2a3.4,3.4,0,0,0,.1,1,2,2,0,0,0,.5,1.5l.6.4a1.8,1.8,0,0,0,1.6,0l.5-.4a2,2,0,0,0,.6-1.4Z" fill="#4f6872"/><path d="M135.2,75l-.5-.8a13.4,13.4,0,0,0-1.1-1.4L133,72c-.2-.2-.3-.5-.6-.7a1.6,1.6,0,0,0-.8-.6l-.6-.5c-.2-.2-.6,0-.5.2s.1.6.1.9a2.8,2.8,0,0,0,.1.9,10.4,10.4,0,0,0,.4,1l.4.8c.2.6.5,1.1.7,1.7l.5.8a3.6,3.6,0,0,0,.7,1,1.7,1.7,0,0,0,1.7.2,1.7,1.7,0,0,0,.6-1.6A2.7,2.7,0,0,0,135.2,75Z" fill="#4f6872"/><path d="M139.9,73.9l-1-.9-.8-.4-1.8-1-3.8-1.7a.8.8,0,0,0-.9.2.6.6,0,0,0,.1.9l3.1,2.6a10.9,10.9,0,0,0,1.7,1.3l.8.5,1,.5a1.3,1.3,0,0,0,1.6-2Z" fill="#4f6872"/><path d="M91.8,244.3a4,4,0,0,0-1.2-1A3.8,3.8,0,0,0,89,243H88a3.1,3.1,0,0,0-1,.5,2.7,2.7,0,0,0-.7.8,3.1,3.1,0,0,0,0,2.2l.7.7.9.5,1.1.3,1.4.5,1.3.7a5.2,5.2,0,0,1,1,1.1,4.3,4.3,0,0,1,.3,1.7,2.9,2.9,0,0,1-.4,1.7,4.1,4.1,0,0,1-1,1.3,4.6,4.6,0,0,1-1.4.7l-1.6.2H87.4l-1.2-.4-1-.6-.8-.9,1.2-.9a2.8,2.8,0,0,0,1.2,1.2,2.7,2.7,0,0,0,1.8.5h1.1l1-.5a7.1,7.1,0,0,0,.7-.9,2,2,0,0,0,.2-1.1,2.2,2.2,0,0,0-.2-1.2,6,6,0,0,0-.8-.8l-1-.5-1.3-.4-1.3-.5a4.1,4.1,0,0,1-1.1-.7,2.8,2.8,0,0,1-.9-1,4.1,4.1,0,0,1-.3-1.6,3.3,3.3,0,0,1,.4-1.7,5.2,5.2,0,0,1,1-1.1,3.7,3.7,0,0,1,1.4-.7l1.5-.2a6,6,0,0,1,2.4.5,4,4,0,0,1,1.4,1.1Z" fill="#4f6872"/><path d="M109.3,248.9a6.4,6.4,0,0,1-.5,2.8,5.1,5.1,0,0,1-1.5,2.3,7.1,7.1,0,0,1-2.2,1.5,8.1,8.1,0,0,1-5.6,0,7.1,7.1,0,0,1-2.2-1.5,5.1,5.1,0,0,1-1.5-2.3,8.1,8.1,0,0,1,0-5.6,5.1,5.1,0,0,1,1.5-2.3,7.1,7.1,0,0,1,2.2-1.5,8.1,8.1,0,0,1,5.6,0,7.1,7.1,0,0,1,2.2,1.5,5.1,5.1,0,0,1,1.5,2.3A6.4,6.4,0,0,1,109.3,248.9Zm-1.4,0a5.4,5.4,0,0,0-.4-2.2,4,4,0,0,0-1.1-1.9,4.6,4.6,0,0,0-1.8-1.3,5.5,5.5,0,0,0-4.6,0,4.6,4.6,0,0,0-1.8,1.3,4,4,0,0,0-1.1,1.9,5.4,5.4,0,0,0-.4,2.2,6.2,6.2,0,0,0,.4,2.3,4.2,4.2,0,0,0,1.1,1.8,4.6,4.6,0,0,0,1.8,1.3,5.5,5.5,0,0,0,4.6,0,4.6,4.6,0,0,0,1.8-1.3,4.2,4.2,0,0,0,1.1-1.8A6.2,6.2,0,0,0,107.9,248.9Z" fill="#4f6872"/><path d="M111.8,255.7h-1.5l5.8-13.6h1.3l5.8,13.6h-1.5l-1.5-3.6h-7Zm2-4.9h5.9l-3-7.1Z" fill="#4f6872"/><path d="M125.2,242.1h3.9a5.2,5.2,0,0,1,1.8.3,3.4,3.4,0,0,1,1.5.6,2.7,2.7,0,0,1,.9,1.2,3.3,3.3,0,0,1,.3,1.5,3.5,3.5,0,0,1-.3,1.6,2.9,2.9,0,0,1-1,1.2,3,3,0,0,1-1.4.6,5.8,5.8,0,0,1-1.9.3h-2.4v6.3h-1.4Zm1.4,6.1h2.3a4.4,4.4,0,0,0,2.5-.6,2.1,2.1,0,0,0,.8-1.9,2.2,2.2,0,0,0-.8-1.8,4.4,4.4,0,0,0-2.5-.6h-2.3Z" fill="#4f6872"/><path d="M152.5,253.5l-.9.9-1.1.8a3.5,3.5,0,0,1-1.4.6l-1.7.2a8.2,8.2,0,0,1-2.8-.5,9.1,9.1,0,0,1-2.3-1.5,5.9,5.9,0,0,1-1.4-2.3,8.1,8.1,0,0,1,0-5.6,5.1,5.1,0,0,1,1.5-2.3,7.1,7.1,0,0,1,2.2-1.5,8.7,8.7,0,0,1,2.8-.5h1.5l1.3.5,1.2.7a2.4,2.4,0,0,1,.8.9l-1.1.8-.6-.7-.8-.5-1.1-.4-1.2-.2a5.6,5.6,0,0,0-2.3.5,4.6,4.6,0,0,0-1.8,1.3,4.2,4.2,0,0,0-1.1,1.8,6.2,6.2,0,0,0-.4,2.3,5.4,5.4,0,0,0,.4,2.2,5,5,0,0,0,1.1,1.9,4.6,4.6,0,0,0,1.8,1.3,5.9,5.9,0,0,0,2.3.5,5.4,5.4,0,0,0,2.2-.5,4.3,4.3,0,0,0,1.8-1.5Z" fill="#4f6872"/><path d="M168,248.9a6.4,6.4,0,0,1-.6,2.8,5.1,5.1,0,0,1-1.5,2.3,7.1,7.1,0,0,1-2.2,1.5,8.2,8.2,0,0,1-2.8.5,8.7,8.7,0,0,1-2.8-.5,8.6,8.6,0,0,1-2.2-1.5,7.6,7.6,0,0,1-1.5-2.3,8.1,8.1,0,0,1,0-5.6,7.6,7.6,0,0,1,1.5-2.3,8.6,8.6,0,0,1,2.2-1.5,8.7,8.7,0,0,1,2.8-.5,8.2,8.2,0,0,1,2.8.5,7.1,7.1,0,0,1,2.2,1.5,5.1,5.1,0,0,1,1.5,2.3A6.4,6.4,0,0,1,168,248.9Zm-1.5,0a5.4,5.4,0,0,0-.4-2.2,4,4,0,0,0-1.1-1.9,4.3,4.3,0,0,0-1.7-1.3,6,6,0,0,0-2.4-.5,5.9,5.9,0,0,0-2.3.5,4.6,4.6,0,0,0-1.8,1.3,5,5,0,0,0-1.1,1.9,7.8,7.8,0,0,0-.4,2.2,9.3,9.3,0,0,0,.4,2.3,5.4,5.4,0,0,0,1.1,1.8,4.6,4.6,0,0,0,1.8,1.3,5.9,5.9,0,0,0,2.3.5,6,6,0,0,0,2.4-.5A4.3,4.3,0,0,0,165,253a4.2,4.2,0,0,0,1.1-1.8A6.2,6.2,0,0,0,166.5,248.9Z" fill="#4f6872"/><path d="M171.6,254.7a1.3,1.3,0,0,1-.3.8,1,1,0,0,1-1.4,0,1.3,1.3,0,0,1-.3-.8,1.1,1.1,0,0,1,.3-.7,1,1,0,0,1,1.4,0A1.1,1.1,0,0,1,171.6,254.7Z" fill="#4f6872"/><path d="M215.2,87.2A87.2,87.2,0,1,1,128,0,87.3,87.3,0,0,1,215.2,87.2ZM128,7.3a79.9,79.9,0,1,0,79.9,79.9A79.9,79.9,0,0,0,128,7.3Z" fill="#4f6872"/></svg>