<svg xmlns="http://www.w3.org/2000/svg" id="Layer_1" width="200" height="200" viewBox="0 0 200 200"><path d="M16.9 144.6h8.9c7.7 0 11.7 3 11.7 9.5 0 3.9-1.9 6.7-5.3 7.8a8.7 8.7 0 0 1 7.6 9.1c0 7.1-4.6 10.5-14.7 10.5h-8.2zm8.9 16c5.4 0 8.2-1.8 8.2-6.2s-2.7-6.5-8.2-6.5h-5.4v12.7zm-.8 17.5c7.8 0 11.2-1.9 11.2-7.1s-3.4-7.2-10.4-7.2h-5.4v14.3zm18.9-33.5h3.6V178h13.6v3.5H43.9z"/><path d="M78.3 182.1A19.2 19.2 0 1 1 97.4 163a19 19 0 0 1-19.1 19.1zm0-34.6A15.5 15.5 0 1 0 93.8 163a15.3 15.3 0 0 0-15.5-15.5zm41 34.6a19.2 19.2 0 1 1 19.1-19.1 19 19 0 0 1-19.1 19.1zm0-34.6a15.5 15.5 0 1 0 15.5 15.5 15.3 15.3 0 0 0-15.5-15.5zm23.2-2.9h4.3l16.1 32.8 15.9-32.8h4.3v36.9h-3.6v-30.4l-14.8 30.4h-3.6l-15-30.5v30.5h-3.6zm-41-52.6c-1.5-4.6-5-9.1-10-10s-10 1.4-11.7 6.2 1.3 11.7 6.8 11.1c1.9-.2 3.1-2.9 1.1-3.9s-4.6-5.1-1.5-7.3 8.1-.4 10.1 2.8 2.2 10.3 1.2 15.5-1.9 8.2-4.5 11.5c-.4.6 2.3.2 3.5-1.3a24.8 24.8 0 0 0 4.1-7.7c1.7-5.3 2.6-11.5.9-16.9z"/><path d="M107 71.4a27 27 0 0 0-19.5-11.2 22.8 22.8 0 0 0-20 8.6c-4.6 6.1-6.6 16-2 22.7 1.7 2.5 6.5 1 5.2-2.2-2.1-5.3-2.5-10.6.4-15.7s8.8-8.2 14.9-8.3c14.3-.1 23.6 12.9 23.7 26.3a37.7 37.7 0 0 1-2.1 12.5c-1.2 4-3.1 7.5-4.7 11.2l-.3.7a7.2 7.2 0 0 0 2.2-1.6 35.8 35.8 0 0 0 5.2-8.8 37.3 37.3 0 0 0 3-11.8 33.7 33.7 0 0 0-6-22.4z"/><path d="M125.4 55.6c-7.6-2.3-16.7 3.8-14.3 12.2 1.1 3.6 4.7 6.7 8.6 5.6s5-5.3 1.8-7.6c-.6-.4-1.6.5-1.1 1.2s-.1 3.7-2.2 3.7a4.3 4.3 0 0 1-2.9-1.3 6.3 6.3 0 0 1-1.4-5.7c.9-4.3 5.9-5.5 9.6-4.1 10.3 3.8 7.9 17.4 4.8 25.2-6 15.3-19.8 27.2-35.2 32.5a.7.7 0 1 0 .4 1.4c19.1-3.8 34.8-18.6 40.6-37.2 2.8-8.9 2.1-22.6-8.7-25.9zm8.8-3.7c-2.2 0-2.2 3.5 0 3.5a1.8 1.8 0 0 0 0-3.5zm4.6 4.3c-2.5 0-2.5 3.9 0 3.9s2.5-3.9 0-3.9zm3.1 6.9c-2.9 0-2.9 4.6 0 4.6s2.9-4.6 0-4.6zm-83.1 8.1a1.9 1.9 0 0 0 0 3.7 1.9 1.9 0 0 0 0-3.7zm-.9 7.4a1.7 1.7 0 0 0 0 3.4c2.1 0 2.2-3.4 0-3.4zm.4 6c-3.2 0-3.2 5 0 5s3.3-5 0-5zm34.6 11.9h-.2c-2.5-.1-2.5 4.1 0 3.9h.2a1.9 1.9 0 0 0 0-3.9zm-7 3.8a1.7 1.7 0 0 0 0 3.4 1.7 1.7 0 0 0 0-3.4zm-5.9-2c-2.4 0-2.4 3.8 0 3.8s2.4-3.8 0-3.8zm47.2-61.7a28.3 28.3 0 0 0-14.5 5.4c2.6-6.5 4.1-13.3 2.1-20.7a1.5 1.5 0 0 0-2.2-.9c-6.3 3.5-10 9.6-11.8 16.5a5 5 0 0 0-.4-1.3 51.9 51.9 0 0 0-9.9-17.8 1.2 1.2 0 0 0-2 .5 41.5 41.5 0 0 0 .5 25.4 34.4 34.4 0 0 0-6.4-3.1 37 37 0 0 0-8.1-1.3 1.5 1.5 0 0 0-1.3 2.2 31.7 31.7 0 0 0 23.7 15.4 10.9 10.9 0 0 0 1 1.1 1.7 1.7 0 0 0 2.9-.8 1.5 1.5 0 0 0 2.3-.1c10.6-1.4 20.9-8.5 25.4-18.3.4-.9 0-2.4-1.3-2.2zm-22.8-.3a22.1 22.1 0 0 1 7.9-12.1c1.2 7.6-.9 15.3-4.3 22.3a22.6 22.6 0 0 0-4.5 8c-.1-.1 0-.2-.1-.3.2-6-.5-11.9 1-17.9zm-4.5 5.1a42.2 42.2 0 0 0 .1 12.3h-.8a38.9 38.9 0 0 0-4.1-5 38.4 38.4 0 0 1-4.8-27.3 49.8 49.8 0 0 1 8.2 15.2c.5 1.5 1 3.1 1.4 4.8zm-22.3 1.2a29.9 29.9 0 0 1 14.6 7.9 16.4 16.4 0 0 0 1.4 2.2 30.6 30.6 0 0 1-16-10.1zm29 12.4c3.4-7.1 9.7-13.4 17.6-15.1A37.5 37.5 0 0 1 106.6 55z"/><path d="M101 55.9a1.1 1.1 0 0 0-.3-.9 1 1 0 0 0-.9-.2h-.2a.7.7 0 0 0-.6.3l-.5.4-.9.8-.8.9-.5.7a2 2 0 0 0-.1 1.1v.2a1 1 0 0 0 .4.5l.6.2a1.2 1.2 0 0 0 1-.2 1.5 1.5 0 0 0 .6-.5l.7-.9a10.5 10.5 0 0 0 .8-1.1l.3-.4c0-.1.1-.2.2-.3a6.4 6.4 0 0 0 .2-.7z"/><path d="M102.3 60.2l-.3-1.7-.3-1.5a2.9 2.9 0 0 0-.2-.9 2.4 2.4 0 0 0-.6-.8h-.8a1.6 1.6 0 0 0-.5.9 3 3 0 0 0-.2 1c0 .5-.1 1-.1 1.5s-.1 1-.1 1.5.1.6.1.8a1.7 1.7 0 0 0 .4 1.2l.5.3a1.3 1.3 0 0 0 1.2 0l.4-.3a1.6 1.6 0 0 0 .5-1.1zm3.4-1.6l-.5-.6a4.4 4.4 0 0 0-.8-1.1l-.5-.6-.4-.6a1.8 1.8 0 0 0-.7-.5l-.5-.4a.3.3 0 0 0-.4.2 1.7 1.7 0 0 1 .1.7 1.7 1.7 0 0 1 .1.7l.3.8.3.6.6 1.3a1.6 1.6 0 0 0 .4.7 1.8 1.8 0 0 0 .5.7 1.3 1.3 0 0 0 1.3.2 1.1 1.1 0 0 0 .5-1.2z"/><path d="M109.3 57.7c-.3-.2-.5-.5-.8-.6l-.6-.4-1.5-.7-2.9-1.4a.5.5 0 0 0-.7.2.6.6 0 0 0 .1.7l2.4 2a7.1 7.1 0 0 0 1.4 1l.6.4a2 2 0 0 0 .8.4 1 1 0 0 0 1.3-.3 1.1 1.1 0 0 0-.1-1.3zM71.7 190.9a2.4 2.4 0 0 0-.9-.8 2.8 2.8 0 0 0-1.3-.3h-.8l-.7.4-.5.6a1.5 1.5 0 0 0-.2.9 1.1 1.1 0 0 0 .2.8 1.3 1.3 0 0 0 .5.6l.7.4.8.3 1.2.4 1 .5a2.2 2.2 0 0 1 .7.9 2.3 2.3 0 0 1 .3 1.3 2.8 2.8 0 0 1-.3 1.3 3.9 3.9 0 0 1-.8 1l-1.1.5-1.3.2h-.9l-.9-.3-.8-.5-.7-.7.9-.7 1 1a3.3 3.3 0 0 0 1.5.4l.8-.2a1.5 1.5 0 0 0 .7-.3 2 2 0 0 0 .6-.7 2 2 0 0 0 .2-.9 2.9 2.9 0 0 0-.2-.9l-.6-.6-.8-.4-1-.3-1-.4a1.8 1.8 0 0 1-.9-.6 2.7 2.7 0 0 1-.7-.8 3.7 3.7 0 0 1-.2-1.2 2.8 2.8 0 0 1 .3-1.3 2.4 2.4 0 0 1 .8-.9 2.2 2.2 0 0 1 1.1-.5l1.2-.2a3.4 3.4 0 0 1 1.8.4 2 2 0 0 1 1.1.9zm13.7 3.5a5.6 5.6 0 0 1-.4 2.3 9.9 9.9 0 0 1-1.1 1.7 5.7 5.7 0 0 1-1.8 1.2 6.2 6.2 0 0 1-4.4 0 6.1 6.1 0 0 1-2.9-2.9 6.5 6.5 0 0 1 0-4.5 6.1 6.1 0 0 1 2.9-2.9 6.3 6.3 0 0 1 4.4 0 5.7 5.7 0 0 1 1.8 1.2 9.9 9.9 0 0 1 1.1 1.7 5.4 5.4 0 0 1 .4 2.2zm-1.1.1a5.2 5.2 0 0 0-.3-1.8 4.6 4.6 0 0 0-.9-1.5 5 5 0 0 0-1.4-1 5.6 5.6 0 0 0-3.6 0 7.1 7.1 0 0 0-1.4 1 4.6 4.6 0 0 0-.9 1.5 9.9 9.9 0 0 0-.2 1.8 8.8 8.8 0 0 0 .2 1.7 3.8 3.8 0 0 0 .9 1.5 7.1 7.1 0 0 0 1.4 1 5.5 5.5 0 0 0 3.6 0 5 5 0 0 0 1.4-1 3.8 3.8 0 0 0 .9-1.5 4.7 4.7 0 0 0 .3-1.7zm3 5.2h-1.2l4.6-10.5h1.1l4.5 10.5h-1.2l-1.2-2.7h-5.4zm1.6-3.7h4.6l-2.3-5.6zm8.9-6.8h4.5a3.9 3.9 0 0 1 1.1.6 1.8 1.8 0 0 1 .7.8 2.8 2.8 0 0 1 .3 1.3 2.1 2.1 0 0 1-.3 1.2 1.6 1.6 0 0 1-.7.9l-1.1.5a3.9 3.9 0 0 1-1.5.2h-1.9v4.9h-1.1zm1.1 4.7h1.8a3.7 3.7 0 0 0 2-.5 1.9 1.9 0 0 0-.1-2.9 3.4 3.4 0 0 0-1.9-.4h-1.8zm20.2 4.1l-.6.8-.9.6-1.1.4-1.3.2a5.9 5.9 0 0 1-2.3-.4 6.6 6.6 0 0 1-1.7-1.2 4.5 4.5 0 0 1-1.1-1.7 5.6 5.6 0 0 1-.4-2.3 5.4 5.4 0 0 1 .4-2.2 4.5 4.5 0 0 1 1.1-1.7 5.7 5.7 0 0 1 1.8-1.2 5.1 5.1 0 0 1 2.2-.4h1.1l1 .4a1.9 1.9 0 0 1 .9.5l.7.7-.9.6-.4-.5-.7-.4-.8-.3h-.9a5.8 5.8 0 0 0-1.9.3 3.7 3.7 0 0 0-2.2 2.5 5.1 5.1 0 0 0-.3 1.7 5.2 5.2 0 0 0 .3 1.8 4.6 4.6 0 0 0 .9 1.5 4.5 4.5 0 0 0 1.3 1 5.8 5.8 0 0 0 1.9.3 4.7 4.7 0 0 0 1.7-.3 5.3 5.3 0 0 0 1.4-1.2zm12.1-3.6a5.6 5.6 0 0 1-.4 2.3 6.6 6.6 0 0 1-1.2 1.7 4.3 4.3 0 0 1-1.7 1.2 6.2 6.2 0 0 1-4.4 0 6.1 6.1 0 0 1-2.9-2.9 6.5 6.5 0 0 1 0-4.5 6.1 6.1 0 0 1 2.9-2.9 6.3 6.3 0 0 1 4.4 0 4.3 4.3 0 0 1 1.7 1.2 6.6 6.6 0 0 1 1.2 1.7 5.4 5.4 0 0 1 .4 2.2zm-1.1.1a5.2 5.2 0 0 0-.3-1.8 4.6 4.6 0 0 0-.9-1.5 5 5 0 0 0-1.4-1 5.6 5.6 0 0 0-3.6 0 5 5 0 0 0-1.4 1 4.6 4.6 0 0 0-.9 1.5 5.2 5.2 0 0 0-.3 1.8 4.7 4.7 0 0 0 .3 1.7 3.8 3.8 0 0 0 .9 1.5 5 5 0 0 0 1.4 1 5.5 5.5 0 0 0 3.6 0 5 5 0 0 0 1.4-1 3.8 3.8 0 0 0 .9-1.5 4.7 4.7 0 0 0 .3-1.7zm4 4.5a1.4 1.4 0 0 1-.2.6l-.6.2a.8.8 0 0 1-.6-.2 1.4 1.4 0 0 1-.2-.6.8.8 0 0 1 .2-.5.6.6 0 0 1 .6-.3l.6.3a.8.8 0 0 1 .2.5z"/><path d="M168.1 68.1A68.1 68.1 0 1 1 100 0a68.1 68.1 0 0 1 68.1 68.1zM100 5.7a62.4 62.4 0 1 0 62.4 62.4A62.4 62.4 0 0 0 100 5.7z"/></svg>