<svg xmlns="http://www.w3.org/2000/svg" width="256" height="256" viewBox="0 0 256 256"><path d="M21.6 185.1H33c9.9 0 15 3.8 15 12.2 0 5-2.4 8.5-6.7 10 6.1 1 9.7 5.6 9.7 11.6 0 9.1-6 13.4-18.9 13.4H21.6zm11.5 20.5c6.8 0 10.4-2.4 10.4-8s-3.4-8.3-10.4-8.3h-7v16.3zM32 227.9c10 0 14.3-2.4 14.3-9s-4.3-9.3-13.2-9.3h-7v18.3zm24.2-42.8h4.6v42.7h17.4v4.5h-22z"/><path d="M100.2 233.1a24.5 24.5 0 1 1 24.5-24.5 24.4 24.4 0 0 1-24.5 24.5zm0-44.3a19.9 19.9 0 1 0 19.8 19.8 19.6 19.6 0 0 0-19.8-19.8zm52.5 44.3a24.5 24.5 0 1 1 24.4-24.5 24.4 24.4 0 0 1-24.4 24.5zm0-44.3a19.9 19.9 0 1 0 19.8 19.8 19.6 19.6 0 0 0-19.8-19.8zm29.7-3.7h5.5l20.6 42 20.4-42h5.5v47.2h-4.7v-38.9l-18.9 38.9h-4.6l-19.2-39v39h-4.6zm-52.5-67.3c-1.9-5.9-6.4-11.7-12.8-12.8s-12.8 1.8-15 7.9 1.7 14.9 8.8 14.2c2.4-.3 3.9-3.7 1.3-5s-5.9-6.5-1.9-9.4 10.4-.5 13 3.6c3.7 6 2.8 13.3 1.6 19.8s-2.6 10.6-5.8 14.8c-.6.7 2.9.3 4.4-1.6a33.1 33.1 0 0 0 5.3-10c2.2-6.7 3.3-14.7 1.1-21.5z"/><path d="M136.9 91.4A34.5 34.5 0 0 0 112 77.1c-9.8-.8-19.6 3-25.6 10.9s-8.5 20.5-2.5 29.1c2.1 3.2 8.3 1.3 6.6-2.8-2.7-6.8-3.2-13.6.5-20.1s11.3-10.5 19.1-10.6c18.3-.1 30.2 16.5 30.4 33.7a54.2 54.2 0 0 1-2.7 16c-1.6 5-4 9.5-6.1 14.3l-.4.9c-.1.3 2-1.2 2.8-2.1a47.9 47.9 0 0 0 6.8-11.2 47 47 0 0 0 3.7-15.2 42.2 42.2 0 0 0-7.7-28.6z"/><path d="M160.5 71.2c-9.7-3-21.4 4.8-18.2 15.6 1.3 4.6 5.9 8.6 10.9 7.2s6.5-6.9 2.4-9.7c-.9-.6-2.2.6-1.5 1.4 1.8 2.4-.2 4.8-2.8 4.8a5.6 5.6 0 0 1-3.7-1.7 8.2 8.2 0 0 1-1.8-7.3c1.2-5.5 7.5-7 12.3-5.2 13.2 4.9 10.1 22.2 6.1 32.3-7.7 19.5-25.4 34.8-45.1 41.5a1 1 0 0 0 .6 1.9c24.5-4.9 44.5-23.9 52-47.6 3.6-11.5 2.6-29-11.2-33.2zm11.3-4.7c-2.8 0-2.8 4.4 0 4.4a2.2 2.2 0 0 0 0-4.4zm5.8 5.5c-3.2 0-3.2 4.9 0 4.9s3.2-4.9 0-4.9zm4.1 8.8c-3.8 0-3.8 5.8 0 5.8s3.7-5.8 0-5.8zM75.2 91.2c-3 0-3 4.7 0 4.7a2.4 2.4 0 0 0 0-4.7zm-1.1 9.4c-2.8 0-2.8 4.4 0 4.4s2.8-4.4 0-4.4zm.6 7.6c-4.2 0-4.2 6.5 0 6.5s4.1-6.5 0-6.5zm44.3 15.3h-.4c-3.2-.2-3.2 5.2 0 5h.4a2.5 2.5 0 0 0 0-5zm-9.1 4.9c-2.7 0-2.7 4.3 0 4.3s2.8-4.3 0-4.3zm-7.5-2.6c-3.1 0-3.1 4.8 0 4.8s3.1-4.8 0-4.8zm60.4-79c-6.9.8-13 2.7-18.6 7 3.4-8.4 5.3-17.1 2.7-26.6a1.9 1.9 0 0 0-2.8-1.1c-8 4.5-12.8 12.3-15.1 21.1a10.5 10.5 0 0 0-.4-1.7 69 69 0 0 0-12.8-22.7 1.5 1.5 0 0 0-2.5.7 52.7 52.7 0 0 0 .6 32.4 40.3 40.3 0 0 0-8.1-3.9 41.9 41.9 0 0 0-10.5-1.7c-1.4-.1-2.2 1.7-1.6 2.8a40.5 40.5 0 0 0 30.4 19.7l1.2 1.5a2.2 2.2 0 0 0 3.7-1.1 1.9 1.9 0 0 0 2.9-.1c13.6-1.8 26.8-10.9 32.6-23.5.5-1.1-.1-3-1.7-2.8zm-29.1-.3c1.6-6.1 4.9-11.8 10-15.5 1.6 9.7-1.1 19.6-5.5 28.5a31.6 31.6 0 0 0-5.7 10.3c-.1-.1-.1-.3-.2-.4.3-7.7-.6-15.3 1.4-22.9zm-5.9 6.5a63.4 63.4 0 0 0 .1 15.7h-1a39.8 39.8 0 0 0-5.1-6.4c-6.2-10.4-8.8-23.1-6.2-35a65.7 65.7 0 0 1 10.5 19.5c.6 1.9 1.2 4 1.7 6.2zm-28.4 1.6a37.3 37.3 0 0 1 18.6 10 17.5 17.5 0 0 0 1.8 2.9 38.8 38.8 0 0 1-20.4-12.9zm37 15.8c4.4-9.1 12.5-17.1 22.6-19.3a47.7 47.7 0 0 1-22.6 19.3z"/><path d="M129.2 71.6a1.2 1.2 0 0 0-1.4-1.5h-.3l-.8.5-.6.5a15.6 15.6 0 0 0-2.1 2.1l-.7.9a2.3 2.3 0 0 0-.2 1.4.3.3 0 0 0 .1.2c.1.3.2.6.5.7a1 1 0 0 0 .8.3 1.7 1.7 0 0 0 1.2-.2 2.7 2.7 0 0 0 .8-.7l.9-1.1 1-1.4a2.1 2.1 0 0 1 .4-.6l.2-.3a1.5 1.5 0 0 0 .2-.9z"/><path d="M130.9 77.1a18.5 18.5 0 0 0-.4-2.3l-.3-1.9a4.5 4.5 0 0 0-.3-1.1 2.3 2.3 0 0 0-.7-1 1.2 1.2 0 0 0-1 0 2.6 2.6 0 0 0-.7 1.1l-.3 1.3a12.1 12.1 0 0 1-.1 1.9c0 .7-.1 1.4-.1 2a3.4 3.4 0 0 0 .1 1 2 2 0 0 0 .5 1.5l.6.4a1.8 1.8 0 0 0 1.6 0l.5-.4a2 2 0 0 0 .6-1.4zm4.3-2.1l-.5-.8a13.4 13.4 0 0 0-1.1-1.4l-.6-.8c-.2-.2-.3-.5-.6-.7a1.6 1.6 0 0 0-.8-.6l-.6-.5c-.2-.2-.6 0-.5.2s.1.6.1.9a2.8 2.8 0 0 0 .1.9 10.4 10.4 0 0 0 .4 1l.4.8c.2.6.5 1.1.7 1.7l.5.8a3.6 3.6 0 0 0 .7 1 1.7 1.7 0 0 0 1.7.2 1.7 1.7 0 0 0 .6-1.6 2.7 2.7 0 0 0-.5-1.1z"/><path d="M139.9 73.9l-1-.9-.8-.4-1.8-1-3.8-1.7a.8.8 0 0 0-.9.2.6.6 0 0 0 .1.9l3.1 2.6a10.9 10.9 0 0 0 1.7 1.3l.8.5 1 .5a1.3 1.3 0 0 0 1.6-2zM91.8 244.3a4 4 0 0 0-1.2-1 3.8 3.8 0 0 0-1.6-.3h-1a3.1 3.1 0 0 0-1 .5 2.7 2.7 0 0 0-.7.8 3.1 3.1 0 0 0 0 2.2l.7.7.9.5 1.1.3 1.4.5 1.3.7a5.2 5.2 0 0 1 1 1.1 4.3 4.3 0 0 1 .3 1.7 2.9 2.9 0 0 1-.4 1.7 4.1 4.1 0 0 1-1 1.3 4.6 4.6 0 0 1-1.4.7l-1.6.2h-1.2l-1.2-.4-1-.6-.8-.9 1.2-.9a2.8 2.8 0 0 0 1.2 1.2 2.7 2.7 0 0 0 1.8.5h1.1l1-.5a7.1 7.1 0 0 0 .7-.9 2 2 0 0 0 .2-1.1 2.2 2.2 0 0 0-.2-1.2 6 6 0 0 0-.8-.8l-1-.5-1.3-.4-1.3-.5a4.1 4.1 0 0 1-1.1-.7 2.8 2.8 0 0 1-.9-1 4.1 4.1 0 0 1-.3-1.6 3.3 3.3 0 0 1 .4-1.7 5.2 5.2 0 0 1 1-1.1 3.7 3.7 0 0 1 1.4-.7l1.5-.2a6 6 0 0 1 2.4.5 4 4 0 0 1 1.4 1.1zm17.5 4.6a6.4 6.4 0 0 1-.5 2.8 5.1 5.1 0 0 1-1.5 2.3 7.1 7.1 0 0 1-2.2 1.5 8.1 8.1 0 0 1-5.6 0 7.1 7.1 0 0 1-2.2-1.5 5.1 5.1 0 0 1-1.5-2.3 8.1 8.1 0 0 1 0-5.6 5.1 5.1 0 0 1 1.5-2.3 7.1 7.1 0 0 1 2.2-1.5 8.1 8.1 0 0 1 5.6 0 7.1 7.1 0 0 1 2.2 1.5 5.1 5.1 0 0 1 1.5 2.3 6.4 6.4 0 0 1 .5 2.8zm-1.4 0a5.4 5.4 0 0 0-.4-2.2 4 4 0 0 0-1.1-1.9 4.6 4.6 0 0 0-1.8-1.3 5.5 5.5 0 0 0-4.6 0 4.6 4.6 0 0 0-1.8 1.3 4 4 0 0 0-1.1 1.9 5.4 5.4 0 0 0-.4 2.2 6.2 6.2 0 0 0 .4 2.3 4.2 4.2 0 0 0 1.1 1.8 4.6 4.6 0 0 0 1.8 1.3 5.5 5.5 0 0 0 4.6 0 4.6 4.6 0 0 0 1.8-1.3 4.2 4.2 0 0 0 1.1-1.8 6.2 6.2 0 0 0 .4-2.3zm3.9 6.8h-1.5l5.8-13.6h1.3l5.8 13.6h-1.5l-1.5-3.6h-7zm2-4.9h5.9l-3-7.1zm11.4-8.7h3.9a5.2 5.2 0 0 1 1.8.3 3.4 3.4 0 0 1 1.5.6 2.7 2.7 0 0 1 .9 1.2 3.3 3.3 0 0 1 .3 1.5 3.5 3.5 0 0 1-.3 1.6 2.9 2.9 0 0 1-1 1.2 3 3 0 0 1-1.4.6 5.8 5.8 0 0 1-1.9.3h-2.4v6.3h-1.4zm1.4 6.1h2.3a4.4 4.4 0 0 0 2.5-.6 2.1 2.1 0 0 0 .8-1.9 2.2 2.2 0 0 0-.8-1.8 4.4 4.4 0 0 0-2.5-.6h-2.3zm25.9 5.3l-.9.9-1.1.8a3.5 3.5 0 0 1-1.4.6l-1.7.2a8.2 8.2 0 0 1-2.8-.5 9.1 9.1 0 0 1-2.3-1.5 5.9 5.9 0 0 1-1.4-2.3 8.1 8.1 0 0 1 0-5.6 5.1 5.1 0 0 1 1.5-2.3 7.1 7.1 0 0 1 2.2-1.5 8.7 8.7 0 0 1 2.8-.5h1.5l1.3.5 1.2.7a2.4 2.4 0 0 1 .8.9l-1.1.8-.6-.7-.8-.5-1.1-.4-1.2-.2a5.6 5.6 0 0 0-2.3.5 4.6 4.6 0 0 0-1.8 1.3 4.2 4.2 0 0 0-1.1 1.8 6.2 6.2 0 0 0-.4 2.3 5.4 5.4 0 0 0 .4 2.2 5 5 0 0 0 1.1 1.9 4.6 4.6 0 0 0 1.8 1.3 5.9 5.9 0 0 0 2.3.5 5.4 5.4 0 0 0 2.2-.5 4.3 4.3 0 0 0 1.8-1.5zm15.5-4.6a6.4 6.4 0 0 1-.6 2.8 5.1 5.1 0 0 1-1.5 2.3 7.1 7.1 0 0 1-2.2 1.5 8.2 8.2 0 0 1-2.8.5 8.7 8.7 0 0 1-2.8-.5 8.6 8.6 0 0 1-2.2-1.5 7.6 7.6 0 0 1-1.5-2.3 8.1 8.1 0 0 1 0-5.6 7.6 7.6 0 0 1 1.5-2.3 8.6 8.6 0 0 1 2.2-1.5 8.7 8.7 0 0 1 2.8-.5 8.2 8.2 0 0 1 2.8.5 7.1 7.1 0 0 1 2.2 1.5 5.1 5.1 0 0 1 1.5 2.3 6.4 6.4 0 0 1 .6 2.8zm-1.5 0a5.4 5.4 0 0 0-.4-2.2 4 4 0 0 0-1.1-1.9 4.3 4.3 0 0 0-1.7-1.3 6 6 0 0 0-2.4-.5 5.9 5.9 0 0 0-2.3.5 4.6 4.6 0 0 0-1.8 1.3 5 5 0 0 0-1.1 1.9 7.8 7.8 0 0 0-.4 2.2 9.3 9.3 0 0 0 .4 2.3 5.4 5.4 0 0 0 1.1 1.8 4.6 4.6 0 0 0 1.8 1.3 5.9 5.9 0 0 0 2.3.5 6 6 0 0 0 2.4-.5 4.3 4.3 0 0 0 1.7-1.3 4.2 4.2 0 0 0 1.1-1.8 6.2 6.2 0 0 0 .4-2.3zm5.1 5.8a1.3 1.3 0 0 1-.3.8 1 1 0 0 1-1.4 0 1.3 1.3 0 0 1-.3-.8 1.1 1.1 0 0 1 .3-.7 1 1 0 0 1 1.4 0 1.1 1.1 0 0 1 .3.7z"/><path d="M215.2 87.2A87.2 87.2 0 1 1 128 0a87.3 87.3 0 0 1 87.2 87.2zM128 7.3a79.9 79.9 0 1 0 79.9 79.9A79.9 79.9 0 0 0 128 7.3z"/></svg>