<svg id="Layer_1" data-name="Layer 1" xmlns="http://www.w3.org/2000/svg" width="16" height="16" viewBox="0 0 16 16"><title>logo-16</title><path d="M16,8A8,8,0,1,1,8,0,8,8,0,0,1,16,8ZM8,.7A7.3,7.3,0,0,0,.7,8,7.3,7.3,0,0,0,8,15.3,7.3,7.3,0,0,0,15.3,8,7.3,7.3,0,0,0,8,.7Z" fill="#4f6872"/><path d="M14,7.2a7.7,7.7,0,0,0-3.3,1.2,7.4,7.4,0,0,0,.5-4.7.4.4,0,0,0-.5-.2A5.6,5.6,0,0,0,8,7.3V7A11.1,11.1,0,0,0,5.7,3c-.2-.2-.4-.1-.5.1a9.2,9.2,0,0,0,.1,5.7,6.1,6.1,0,0,0-1.4-.7L2,7.8a.4.4,0,0,0-.3.5,7.1,7.1,0,0,0,5.4,3.5l.2.3a.5.5,0,0,0,.7-.2h.5a7.7,7.7,0,0,0,5.8-4.2A.3.3,0,0,0,14,7.2Zm-5.2,0a5.3,5.3,0,0,1,1.8-2.8,8.4,8.4,0,0,1-1,5.1,5.2,5.2,0,0,0-1,1.8h0A17.6,17.6,0,0,1,8.8,7.2Zm-1,1.1a13.1,13.1,0,0,0,0,2.8H7.6L6.7,9.9A8.3,8.3,0,0,1,5.6,3.7,11.9,11.9,0,0,1,7.5,7.2Zm-5.1.3A6,6,0,0,1,6,10.4l.4.5A7.5,7.5,0,0,1,2.7,8.6Zm6.6,2.8a6.2,6.2,0,0,1,4-3.4A8.8,8.8,0,0,1,9.3,11.4Z" fill="#4f6872"/><path d="M8,11.6v-.2H7.5l-.2.2-.2.2v.2c-.1,0-.1.1-.1.2h.6c.1-.1.1-.2.2-.2l.2-.3H8v-.2H8Z" fill="#4f6872"/><path d="M8.3,12.6v-.4a.6.6,0,0,1-.1-.4.3.3,0,0,0-.1-.2H7.8V13h.5v-.4Z" fill="#4f6872"/><path d="M9.1,12.2H9l-.2-.3H8.7v-.2H8.3v.2c0,.1,0,.1.1.2h0l.2.3v.2h.5a.4.4,0,0,0,.1-.3C9.2,12.3,9.1,12.3,9.1,12.2Z" fill="#4f6872"/><path d="M9.9,12H9.6l-.3-.2-.7-.3H8.5c-.1.1-.1.2,0,.2L9,12l.3.2h.6A.2.2,0,0,0,9.9,12Z" fill="#4f6872"/></svg>