<svg id="Layer_1" data-name="Layer 1" xmlns="http://www.w3.org/2000/svg" width="32" height="32" viewBox="0 0 32 32"><title>logo-32</title><path d="M32,16A16,16,0,1,1,16,0,16,16,0,0,1,32,16ZM16,1.3A14.7,14.7,0,1,0,30.7,16,14.7,14.7,0,0,0,16,1.3Z" fill="#4f6872"/><path d="M28,14.4a13,13,0,0,0-6.6,2.5,14.4,14.4,0,0,0,.9-9.4.7.7,0,0,0-1-.4A11.5,11.5,0,0,0,16,14.6c-.1-.2-.1-.4-.2-.6a24.8,24.8,0,0,0-4.5-8.1.6.6,0,0,0-.9.2,19.9,19.9,0,0,0,.2,11.6,11.1,11.1,0,0,0-2.9-1.4A11.5,11.5,0,0,0,4,15.7a.6.6,0,0,0-.5.9,13.9,13.9,0,0,0,10.7,7l.5.6a.8.8,0,0,0,1.3-.4.6.6,0,0,0,1-.1,14.9,14.9,0,0,0,11.5-8.3C28.7,15,28.5,14.3,28,14.4Zm-10.4-.1a9.9,9.9,0,0,1,3.6-5.5,16.2,16.2,0,0,1-2,10.1,10.2,10.2,0,0,0-2,3.7c0-.1,0-.1-.1-.2C17.3,19.7,16.9,17,17.6,14.3Zm-2,2.3a21,21,0,0,0,0,5.6h-.4a13,13,0,0,0-1.8-2.3A17.4,17.4,0,0,1,11.2,7.5a23,23,0,0,1,3.7,6.9A14.2,14.2,0,0,1,15.6,16.6Zm-10.1.6a14.6,14.6,0,0,1,6.6,3.5l.6,1A13.7,13.7,0,0,1,5.5,17.2Zm13.1,5.6c1.6-3.2,4.4-6.1,8-6.9A17.3,17.3,0,0,1,18.6,22.8Z" fill="#4f6872"/><path d="M16.1,23.2c0-.2,0-.3-.2-.4s-.2-.2-.4-.1h-.1l-.3.2-.2.2-.4.3-.3.4-.3.3c0,.2-.1.4,0,.5h0c0,.1.1.2.2.3h.7l.3-.3.3-.4.3-.5c.1,0,.1-.1.2-.2H16a.4.4,0,0,1,.1-.3h0Z" fill="#4f6872"/><path d="M16.6,25.2a2.8,2.8,0,0,0-.1-.9c0-.2-.1-.4-.1-.6s-.1-.3-.1-.4-.1-.3-.3-.4h-.3c-.2.1-.2.3-.3.4a.9.9,0,0,1-.1.5v.7a1.6,1.6,0,0,0,0,.7v.3c0,.2,0,.4.2.5l.2.2a.6.6,0,0,0,.6,0c0-.1.1-.1.1-.2s.2-.3.2-.5Z" fill="#4f6872"/><path d="M18.2,24.4l-.2-.3-.4-.5-.2-.2-.2-.3-.3-.2c-.1-.1-.2-.1-.2-.2s-.2,0-.2.1v.6c0,.1.1.3.1.4l.2.3a1.4,1.4,0,0,0,.2.6l.2.3c0,.1.1.2.2.3a.7.7,0,0,0,.6.1c.2-.2.3-.4.2-.6A.6.6,0,0,0,18.2,24.4Z" fill="#4f6872"/><path d="M19.8,24l-.3-.3h-.3l-.7-.4-1.3-.6h-.3a.2.2,0,0,0,0,.3l1.1.9.6.5.3.2h.4a.4.4,0,0,0,.5-.7Z" fill="#4f6872"/></svg>