<svg xmlns="http://www.w3.org/2000/svg" width="24" height="24" viewBox="0 0 24 24"><ellipse cx="12" cy="12" fill="#fff" stroke="#4f6872" stroke-miterlimit="10" rx="11.3" ry="11.5"/><path fill="#fff" stroke="#4f6872" stroke-miterlimit="10" d="M18.1 17.2l-2.5-4.4-1-1.7V6.7h.6a.7.7 0 0 0 .7-.7v-.4a.7.7 0 0 0-.7-.7H8.8a.7.7 0 0 0-.7.7V6a.7.7 0 0 0 .7.7h.6v4.4l-1 1.7-2.5 4.4A1.3 1.3 0 0 0 7 19.1h10a1.3 1.3 0 0 0 1.1-1.9z"/><path fill="none" stroke="#4f6872" stroke-miterlimit="10" d="M8.1 13.8h7.8M2.4 18.2L21.6 5.8"/></svg>