<svg xmlns="http://www.w3.org/2000/svg" width="24" height="24" viewBox="0 0 24 24"><path d="M12 24A11.9 11.9 0 0 1 .2 12 11.9 11.9 0 0 1 12 0a11.9 11.9 0 0 1 11.8 12A11.9 11.9 0 0 1 12 24zm0-23A10.9 10.9 0 0 0 1.2 12 10.9 10.9 0 0 0 12 23a10.9 10.9 0 0 0 10.8-11A10.9 10.9 0 0 0 12 1z"/><path d="M17 19.6H7a1.9 1.9 0 0 1-1.5-.9 1.9 1.9 0 0 1 0-1.8L8.9 11V7.2h-.1A1.2 1.2 0 0 1 7.6 6v-.4a1.2 1.2 0 0 1 1.2-1.2h6.4a1.2 1.2 0 0 1 1.2 1.2V6a1.2 1.2 0 0 1-1.2 1.2h-.1V11l3.4 5.9a1.9 1.9 0 0 1 0 1.8 1.9 1.9 0 0 1-1.5.9zM8.8 5.4a.2.2 0 0 0-.2.2V6a.2.2 0 0 0 .2.2h1.1v5l-3.5 6.2a.6.6 0 0 0 0 .8.8.8 0 0 0 .6.4h10a.8.8 0 0 0 .6-.4.6.6 0 0 0 0-.8l-3.5-6.2v-5h1.1a.2.2 0 0 0 .2-.2v-.4a.2.2 0 0 0-.2-.2z"/><path d="M8.1 13.3h7.8v1H8.1z"/><path d="M2.15 17.73L21.293 5.346l.544.84L2.693 18.57z"/></svg>