<svg xmlns="http://www.w3.org/2000/svg" width="24" height="24" viewBox="0 0 24 24"><path d="M11.5 14a3.5 3.5 0 1 1 3.5-3.5 3.5 3.5 0 0 1-3.5 3.5zm0-6a2.5 2.5 0 1 0 2.5 2.5A2.5 2.5 0 0 0 11.5 8zm7 .9a2.4 2.4 0 0 1-2.4-2.4 2.4 2.4 0 0 1 4.8 0 2.4 2.4 0 0 1-2.4 2.4zm0-4a1.6 1.6 0 1 0 1.6 1.6 1.6 1.6 0 0 0-1.6-1.6zm-6.5 0A2 2 0 0 1 10.1 3 2 2 0 0 1 12 1.1 2 2 0 0 1 13.9 3 2 2 0 0 1 12 4.9zm0-3A1.1 1.1 0 1 0 13.1 3 1.1 1.1 0 0 0 12 1.9z"/><ellipse cx="9" cy="21.6" rx="1.2" ry="1.2"/><path d="M9 23.2a1.6 1.6 0 0 1-1.5-1.6A1.5 1.5 0 0 1 9 20.1a1.6 1.6 0 0 1 1.6 1.5A1.6 1.6 0 0 1 9 23.2zm0-2.4a.9.9 0 0 0-.8.8.8.8 0 0 0 .8.8.7.7 0 0 0 .8-.8.8.8 0 0 0-.8-.8z"/><ellipse cx="17.8" cy="21.6" rx="1.2" ry="1.2"/><path d="M17.8 23.2a1.6 1.6 0 0 1-1.5-1.6 1.5 1.5 0 0 1 1.5-1.5 1.6 1.6 0 0 1 1.6 1.5 1.6 1.6 0 0 1-1.6 1.6zm0-2.4a.9.9 0 0 0-.8.8.8.8 0 0 0 .8.8.7.7 0 0 0 .8-.8.8.8 0 0 0-.8-.8zM4.1 11.5H1.5A1.5 1.5 0 0 1 0 10a1.5 1.5 0 0 1 1.5-1.5h2.6A1.5 1.5 0 0 1 5.6 10a1.5 1.5 0 0 1-1.5 1.5zm14.4 8H8A1.5 1.5 0 0 1 6.5 18 1.4 1.4 0 0 1 8 16.5h10.5A1.5 1.5 0 0 1 20 18a1.5 1.5 0 0 1-1.5 1.5z"/><path d="M8 19.5a3 3 0 0 1-2.9-2l-2.4-7a1.5 1.5 0 0 1 .9-1.9 1.5 1.5 0 0 1 1.9.9l2.5 7a1.5 1.5 0 0 1 0 3z"/><path d="M8 19.5a3 3 0 0 1-2.9-2 1.5 1.5 0 0 1 1-1.9 1.5 1.5 0 0 1 1.9.9 1.5 1.5 0 0 1 0 3zm10.6 0a1.5 1.5 0 0 1-1.5-1.5 1.5 1.5 0 0 1 1.5-1.5h.1l2.4-7a1.5 1.5 0 0 1 1.9-.9 1.5 1.5 0 0 1 .9 1.9l-2.5 7a2.7 2.7 0 0 1-2.8 2z"/><path d="M18.6 19.5a1.5 1.5 0 0 1-1.5-1.5 1.5 1.5 0 0 1 1.5-1.5h.1a1.4 1.4 0 0 1 1.8-1 1.7 1.7 0 0 1 1 2 2.9 2.9 0 0 1-2.9 2z"/></svg>