<svg xmlns="http://www.w3.org/2000/svg" width="24" height="24" viewBox="0 0 24 24"><circle cx="11.5" cy="10.5" r="3" fill="#fff" stroke="#4f6872" stroke-linecap="round" stroke-linejoin="round"/><circle cx="18.5" cy="6.5" r="2" fill="#fff" stroke="#4f6872" stroke-linecap="round" stroke-linejoin="round" stroke-width=".75"/><circle cx="12" cy="3" r="1.5" fill="#fff" stroke="#4f6872" stroke-linecap="round" stroke-linejoin="round" stroke-width=".75"/><ellipse cx="9" cy="21.6" fill="#4f6872" stroke="#4f6872" stroke-miterlimit="10" stroke-width=".75" rx="1.2" ry="1.2"/><ellipse cx="17.8" cy="21.6" fill="#4f6872" stroke="#4f6872" stroke-miterlimit="10" stroke-width=".75" rx="1.2" ry="1.2"/><path fill="none" stroke="#4f6872" stroke-linecap="round" stroke-miterlimit="10" stroke-width="3" d="M4.1 10H1.5m17 8H8m0 0a1.4 1.4 0 0 1-1.4-1l-2.5-7M8 18a1.4 1.4 0 0 1-1.4-1m12 1a1.3 1.3 0 0 0 1.4-1l2.5-7m-3.9 8a1.3 1.3 0 0 0 1.4-1"/></svg>